<svg width="19" height="18" viewBox="0 0 19 18" fill="none" xmlns="http://www.w3.org/2000/svg">
    <path d="M3.76944 10.4359C4.13799 10.3814 4.42897 10.3382 4.70196 10.0634C4.92109 9.84267 5.06722 9.50296 5.2365 9.10958C5.46105 8.58742 5.71561 7.99577 6.22601 7.48167C6.46756 7.23822 6.78626 7.05462 7.10024 6.97807C7.43679 6.89591 7.72663 6.94642 7.89576 7.11663C8.04532 7.26728 8.09703 7.52685 8.03389 7.81102C7.95418 8.16915 7.70663 8.56454 7.29808 8.98641C7.13995 9.14987 7.09695 9.33346 7.17723 9.5044C7.27266 9.7067 7.51778 9.83864 7.76463 9.82396L14.4172 3.33779L14.2115 3.13074C14.1872 3.10625 14.1725 3.07376 14.1701 3.03923C14.1626 2.84964 14.1815 2.65992 14.2264 2.47564C14.3264 2.0647 14.5438 1.75535 14.8568 1.58111C15.0499 1.47363 15.2964 1.4155 15.5349 1.35924C15.7733 1.30298 16.0217 1.24413 16.1854 1.14068C16.2808 1.08025 16.3918 1.00514 16.5092 0.925714C17.0643 0.550032 17.4169 0.325572 17.628 0.373629C17.9694 0.451183 18.193 0.832333 18.2024 0.848448C18.2158 0.871812 18.2224 0.898502 18.2215 0.925471C18.2206 0.95244 18.2121 0.9786 18.1971 1.00097L18.0437 1.22873L18.366 1.55334L18.4551 1.46355C18.4683 1.45028 18.484 1.43976 18.5013 1.43259C18.5185 1.42543 18.537 1.42176 18.5557 1.42179C18.5934 1.42186 18.6296 1.43701 18.6562 1.46391C18.6828 1.49082 18.6977 1.52727 18.6976 1.56525C18.6976 1.60323 18.6825 1.63962 18.6558 1.66643L18.2494 2.07578C18.2226 2.102 18.1867 2.11655 18.1493 2.11628C18.112 2.11601 18.0762 2.10095 18.0498 2.07435C18.0234 2.04775 18.0085 2.01175 18.0082 1.97414C18.0079 1.93652 18.0224 1.90031 18.0484 1.87334L18.1646 1.75621L17.8807 1.47032L17.408 2.17204L17.7424 2.50902L17.8313 2.4188C17.8587 2.3961 17.8935 2.38449 17.9289 2.38622C17.9644 2.38794 17.9979 2.40289 18.023 2.42815C18.0481 2.45341 18.063 2.48718 18.0647 2.52287C18.0664 2.55856 18.0549 2.59363 18.0324 2.62125L17.6259 3.0306C17.5991 3.05682 17.5631 3.07137 17.5258 3.0711C17.4885 3.07083 17.4527 3.05577 17.4263 3.02917C17.3999 3.00257 17.3849 2.96657 17.3847 2.92896C17.3844 2.89134 17.3989 2.85513 17.4249 2.82815L17.5412 2.71103L17.2456 2.41305L16.7729 3.11477L17.1193 3.46369L17.2086 3.37391C17.236 3.35123 17.2708 3.33964 17.3063 3.34139C17.3417 3.34314 17.3752 3.35812 17.4003 3.3834C17.4254 3.40868 17.4402 3.44245 17.442 3.47814C17.4437 3.51384 17.4321 3.5489 17.4096 3.5765L17.0028 3.98585C16.9754 4.0087 16.9405 4.02043 16.905 4.01876C16.8694 4.01708 16.8358 4.0021 16.8107 3.97677C16.7855 3.95144 16.7706 3.91756 16.769 3.88177C16.7673 3.84598 16.779 3.81086 16.8016 3.78326L16.9179 3.66628L16.6099 3.35592L16.1371 4.05765L16.4687 4.3916L16.5578 4.30182C16.5846 4.2756 16.6205 4.26105 16.6579 4.26132C16.6952 4.26159 16.731 4.27665 16.7574 4.30325C16.7838 4.32985 16.7987 4.36585 16.799 4.40347C16.7993 4.44108 16.7848 4.47729 16.7588 4.50427L16.3524 4.91376C16.3397 4.92927 16.324 4.94193 16.3062 4.95094C16.2884 4.95995 16.2689 4.96511 16.249 4.96608C16.2291 4.96705 16.2092 4.96381 16.1906 4.95658C16.172 4.94934 16.1551 4.93827 16.141 4.92407C16.1269 4.90987 16.1159 4.89286 16.1088 4.87412C16.1016 4.85539 16.0984 4.83536 16.0994 4.8153C16.1004 4.79525 16.1055 4.77563 16.1144 4.75769C16.1234 4.73976 16.136 4.72391 16.1514 4.71117L16.2675 4.59419L15.9743 4.29952L15.8274 4.51765C15.8156 4.53505 15.8001 4.54962 15.7821 4.56034C15.7641 4.57105 15.744 4.57765 15.7231 4.57966C15.7187 4.57966 15.7141 4.57966 15.7097 4.57966C15.6722 4.57946 15.6363 4.56443 15.6097 4.53779L15.278 4.20412L10.0318 9.66396C10.0323 9.67134 10.0323 9.67875 10.0318 9.68612C10.0092 9.94108 10.1422 10.1978 10.3482 10.2962C10.517 10.3771 10.6994 10.3337 10.8616 10.1745C11.8422 9.21044 12.49 9.34281 12.7186 9.57245C13.0606 9.91778 12.8879 10.7186 12.3559 11.2545C11.8514 11.7627 11.0816 12.2064 10.4025 12.5979C9.89807 12.8887 9.42167 13.1634 9.19682 13.3893C8.91527 13.6729 8.76285 14.0953 8.58629 14.5845C8.34102 15.2644 8.06304 16.0349 7.34736 16.7055C6.68912 17.3222 5.99673 17.6327 5.28263 17.6327C5.09925 17.6324 4.91642 17.6124 4.73724 17.5732C3.98014 17.4088 3.19905 16.9126 2.34867 16.056C1.55058 15.2522 1.13003 14.5438 1.02532 13.8267C0.903046 12.9901 1.22374 12.172 2.00583 11.3253C2.67865 10.5968 3.28333 10.5078 3.76944 10.4359ZM15.6886 4.21319L17.9076 0.920102C17.8347 0.822261 17.7064 0.684995 17.567 0.653197C17.4409 0.639672 16.9376 0.980533 16.6671 1.16341C16.5478 1.24413 16.4352 1.32039 16.3362 1.38298C16.1323 1.51247 15.8611 1.57622 15.599 1.63809C15.3794 1.68988 15.1523 1.74341 14.9938 1.83161C14.4886 2.11305 14.4518 2.77909 14.4519 2.9683L15.6886 4.21319ZM14.6172 3.54038L5.74718 12.1878L6.48999 12.936L15.0752 4.00153L14.6162 3.53981L14.6172 3.54038ZM5.21478 12.7068L5.97545 13.473L6.293 13.1421L5.5429 12.3865L5.21478 12.7068ZM5.34177 12.1845L5.11322 11.9543C5.07545 11.9163 5.02421 11.8949 4.9708 11.8949C4.91738 11.8949 4.86615 11.9163 4.82838 11.9543L4.79038 11.9926C4.75264 12.0307 4.73145 12.0823 4.73145 12.136C4.73145 12.1898 4.75264 12.2414 4.79038 12.2795L5.01379 12.5045L5.34177 12.1845ZM4.07042 12.9903L3.33218 13.7339L4.95551 15.369L5.69375 14.6254L4.07042 12.9903ZM5.47177 13.9975L5.77732 13.6795L5.01022 12.9067L4.69453 13.2146L5.47177 13.9975ZM6.17615 13.6762L6.39957 13.9012C6.43738 13.9392 6.48859 13.9605 6.54199 13.9605C6.59538 13.9605 6.6466 13.9392 6.68441 13.9012L6.7224 13.8629C6.76017 13.8249 6.78139 13.7733 6.78139 13.7195C6.78139 13.6657 6.76017 13.6141 6.7224 13.576L6.49385 13.3458L6.17615 13.6762ZM2.5478 15.8552C4.28927 17.606 5.75175 17.8103 7.15366 16.4963C7.81919 15.8727 8.08475 15.1366 8.31902 14.4873C8.4993 13.9877 8.66943 13.5159 8.99569 13.1874C9.24739 12.9337 9.71722 12.6629 10.2612 12.3493C10.9249 11.9667 11.6771 11.533 12.1548 11.0519C12.3606 10.8445 12.5155 10.5727 12.5798 10.3061C12.6369 10.07 12.6133 9.87145 12.5175 9.7749C12.4018 9.6585 11.9148 9.54023 11.0604 10.3792C10.8106 10.6247 10.5066 10.6887 10.2265 10.5548C9.99149 10.4422 9.8225 10.2084 9.76593 9.94051L6.69255 13.1388L6.92453 13.3724C7.0156 13.4642 7.06676 13.5886 7.06676 13.7183C7.06676 13.8481 7.0156 13.9725 6.92453 14.0642L6.88654 14.1025C6.79536 14.1941 6.67183 14.2456 6.54306 14.2456C6.41428 14.2456 6.29076 14.1941 6.19958 14.1025L5.97945 13.8808L5.6739 14.1988L5.99631 14.5237C6.00952 14.5369 6.02 14.5527 6.02715 14.5701C6.0343 14.5875 6.03798 14.6061 6.03798 14.6249C6.03798 14.6437 6.0343 14.6623 6.02715 14.6797C6.02 14.697 6.00952 14.7128 5.99631 14.7261L5.05708 15.6723C5.03032 15.699 4.99418 15.714 4.95651 15.714C4.91884 15.714 4.8827 15.699 4.85595 15.6723L3.0322 13.8347C3.01899 13.8215 3.00851 13.8057 3.00135 13.7883C2.9942 13.7709 2.99052 13.7523 2.99052 13.7335C2.99052 13.7147 2.9942 13.6961 3.00135 13.6787C3.00851 13.6614 3.01899 13.6456 3.0322 13.6323L3.97143 12.6863C3.99818 12.6595 4.03433 12.6446 4.072 12.6446C4.10966 12.6446 4.14581 12.6595 4.17256 12.6863L4.49497 13.011L4.81081 12.7032L4.59053 12.4815C4.49963 12.3897 4.44859 12.2652 4.44859 12.1355C4.44859 12.0058 4.49963 11.8814 4.59053 11.7896L4.62853 11.7513C4.71973 11.6597 4.84325 11.6083 4.97201 11.6083C5.10078 11.6083 5.22429 11.6597 5.31549 11.7513L5.54633 11.985L7.49793 10.0824C7.24523 10.0191 7.02653 9.8536 6.91953 9.62627C6.78654 9.34411 6.85011 9.03807 7.09381 8.78627C7.92704 7.92584 7.80948 7.43534 7.69377 7.31865C7.59792 7.2221 7.40065 7.19865 7.16638 7.25591C6.90168 7.32052 6.63184 7.47649 6.42599 7.68383C5.95459 8.15864 5.7109 8.7244 5.49634 9.22339C5.32306 9.62627 5.1595 10.0066 4.90194 10.266C4.56239 10.6078 4.19684 10.6619 3.80987 10.7194C3.32204 10.7913 2.81764 10.8661 2.21282 11.5209C0.872904 12.9716 0.973326 14.2676 2.54852 15.8543L2.5478 15.8552Z" fill="#52BB4D" stroke="#52BB4D" stroke-width="0.3" stroke-miterlimit="10"/>
</svg>
