<svg width="17" height="12" viewBox="0 0 17 12" fill="none" xmlns="http://www.w3.org/2000/svg">
    <path d="M16.9581 0.184467C16.9143 0.102467 16.8402 0.0414258 16.7521 0.0147343C16.664 -0.0119573 16.569 -0.00211936 16.488 0.0420908L12.0151 2.49489C9.68418 2.15727 7.31779 2.15727 4.98691 2.49489L0.51146 0.0437962C0.47142 0.0218523 0.427513 0.0081172 0.382237 0.00337489C0.33696 -0.00136743 0.291202 0.00297617 0.247582 0.0161575C0.203962 0.0293387 0.163333 0.0510997 0.12801 0.0801978C0.0926867 0.109296 0.063363 0.145161 0.0417141 0.185746C0.0200652 0.226331 0.00651481 0.270841 0.00183626 0.316734C-0.00284229 0.362627 0.00144034 0.409006 0.0144444 0.453221C0.0274485 0.497436 0.0489219 0.53862 0.0776289 0.574425C0.106336 0.61023 0.14172 0.639953 0.181759 0.661897L3.90527 2.7012C2.69914 2.98766 1.79244 3.43184 1.79244 4.09939V10.1423C1.79244 11.6121 6.18041 12 8.50098 12C10.8215 12 15.2087 11.6121 15.2087 10.1423V4.09769C15.2087 3.43014 14.302 2.98937 13.0959 2.6995L16.8194 0.660192C16.8999 0.615671 16.9598 0.540588 16.9858 0.451409C17.0118 0.362229 17.0019 0.266232 16.9581 0.184467ZM14.519 6.07561C12.9436 6.65108 10.7753 6.97761 8.50434 6.97761C6.2334 6.97761 4.06507 6.65023 2.48971 6.07561V4.99116C3.81863 5.73374 6.75067 5.9554 8.50434 5.9554C10.258 5.9554 13.1901 5.73374 14.519 4.99116V6.07561ZM12.9209 10.8627C11.7434 11.1415 10.1747 11.2949 8.50182 11.2949C6.82889 11.2949 5.25858 11.1415 4.08189 10.8627C2.77064 10.5524 2.48382 10.2088 2.48382 10.1397V6.374C4.08189 6.93839 6.24097 7.25981 8.49846 7.25981C10.7559 7.25981 12.9209 6.93839 14.519 6.374V10.1406C14.519 10.2096 14.2313 10.5524 12.9209 10.8627ZM12.9209 3.37387C14.2322 3.6842 14.519 4.02863 14.519 4.09683C14.519 4.16504 14.2347 4.50947 12.9209 4.8198C11.7434 5.09858 10.1747 5.25204 8.50182 5.25204C6.82889 5.25204 5.25858 5.09858 4.08189 4.8198C2.77064 4.50947 2.48382 4.16504 2.48382 4.09683C2.48382 4.02863 2.76727 3.6842 4.08189 3.37387C4.32413 3.31675 4.58234 3.26474 4.85485 3.2187L6.29144 4.00561C6.31534 4.11072 6.37024 4.20595 6.44885 4.27866C6.52745 4.35136 6.62603 4.39808 6.73147 4.41261C6.83692 4.42713 6.94422 4.40878 7.03912 4.35998C7.13402 4.31118 7.21201 4.23425 7.26272 4.13943C7.31343 4.0446 7.33445 3.93637 7.323 3.82914C7.31155 3.7219 7.26816 3.62074 7.1986 3.53912C7.12904 3.45749 7.03662 3.39926 6.93362 3.37218C6.83061 3.3451 6.72192 3.35045 6.62198 3.38751L6.0265 3.06183C6.79778 2.9834 7.6355 2.94162 8.50182 2.94162C9.36814 2.94162 10.2059 2.9834 10.9763 3.06183L10.3817 3.38751C10.2827 3.3518 10.1755 3.34734 10.074 3.37473C9.97253 3.40212 9.88164 3.46007 9.81334 3.54092C9.74505 3.62176 9.70256 3.72171 9.69148 3.82755C9.6804 3.93339 9.70127 4.04015 9.75131 4.13372C9.80135 4.22729 9.87822 4.30328 9.97176 4.35164C10.0653 4.4 10.1711 4.41846 10.2752 4.40457C10.3793 4.39069 10.4768 4.34513 10.5549 4.2739C10.6329 4.20266 10.6877 4.10912 10.7122 4.00561L12.1488 3.2187C12.4163 3.26218 12.6787 3.31675 12.9209 3.37387Z" fill="#F29E1D"/>
</svg>
