<svg width="20" height="12" viewBox="0 0 20 12" fill="none" xmlns="http://www.w3.org/2000/svg">
    <path d="M0.572209 6.85733C0.493488 6.85733 0.417991 6.89736 0.362327 6.96863C0.306663 7.03989 0.275391 7.13655 0.275391 7.23733C0.275391 7.33812 0.306663 7.43477 0.362327 7.50604C0.417991 7.5773 0.493488 7.61734 0.572209 7.61734H2.64891L3.58729 8.81806C3.62508 8.86625 3.6723 8.90054 3.724 8.91734C3.7757 8.93414 3.82997 8.93282 3.88114 8.91352C3.93231 8.89423 3.97848 8.85767 4.01481 8.80768C4.05114 8.75768 4.0763 8.69609 4.08765 8.62937L4.69211 5.73973L6.54723 11.6054C6.57089 11.6816 6.61315 11.7459 6.66769 11.7888C6.72224 11.8316 6.78615 11.8508 6.84989 11.8434C6.91363 11.836 6.9738 11.8024 7.0214 11.7476C7.06901 11.6928 7.10152 11.6198 7.11407 11.5395L9.14285 1.84136L11.2103 11.7182C11.2275 11.8008 11.266 11.8734 11.3194 11.9245C11.3729 11.9756 11.4383 12.0022 11.5049 11.9999C11.5716 11.9976 11.6358 11.9666 11.687 11.9119C11.7383 11.8572 11.7736 11.782 11.7874 11.6985L13.1721 5.08264L14.7381 8.55614C14.7775 8.64334 14.8424 8.70696 14.9184 8.73305C14.9944 8.75914 15.0754 8.74559 15.1436 8.69534C15.1682 8.6776 15.1906 8.65537 15.2101 8.62937L16.402 7.10341H18.9786C19.0573 7.10341 19.1328 7.06337 19.1885 6.99211C19.2441 6.92084 19.2754 6.82418 19.2754 6.7234C19.2754 6.62262 19.2441 6.52596 19.1885 6.45469C19.1328 6.38343 19.0573 6.34339 18.9786 6.34339H16.2773C16.2383 6.34333 16.1997 6.35316 16.1637 6.37229C16.1277 6.39143 16.0951 6.4195 16.0676 6.45489L15.056 7.75522L13.3395 3.9479C13.3141 3.87681 13.2721 3.81751 13.2194 3.77808C13.1666 3.73865 13.1057 3.72101 13.0448 3.72758C12.9839 3.73414 12.9261 3.76459 12.8793 3.81476C12.8324 3.86494 12.7988 3.93239 12.783 4.00793L11.4947 10.1586L9.43348 0.301543C9.41971 0.217971 9.38434 0.142777 9.33309 0.0880926C9.28184 0.0334085 9.2177 0.00242336 9.15101 0.00013633C9.08432 -0.0021507 9.01897 0.0243938 8.96551 0.075487C8.91204 0.12658 8.87358 0.199242 8.85633 0.281751L6.76572 10.2701L4.91627 4.4229C4.89537 4.34624 4.85584 4.28016 4.80346 4.23435C4.75109 4.18855 4.68863 4.16543 4.62525 4.16838C4.56186 4.17133 4.50088 4.2002 4.45125 4.25075C4.40161 4.3013 4.36593 4.37089 4.34943 4.44929L3.645 7.81394L2.98386 6.97014C2.95625 6.93434 2.92335 6.90592 2.88708 6.88656C2.8508 6.86719 2.81188 6.85725 2.77258 6.85733H0.572209Z" fill="url(#paint0_linear_5238_30465)"/>
    <path d="M0.572209 6.85733C0.493488 6.85733 0.417991 6.89736 0.362327 6.96863C0.306663 7.03989 0.275391 7.13655 0.275391 7.23733C0.275391 7.33812 0.306663 7.43477 0.362327 7.50604C0.417991 7.5773 0.493488 7.61734 0.572209 7.61734H2.64891L3.58729 8.81806C3.62508 8.86625 3.6723 8.90054 3.724 8.91734C3.7757 8.93414 3.82997 8.93282 3.88114 8.91352C3.93231 8.89423 3.97848 8.85767 4.01481 8.80768C4.05114 8.75768 4.0763 8.69609 4.08765 8.62937L4.69211 5.73973L6.54723 11.6054C6.57089 11.6816 6.61315 11.7459 6.66769 11.7888C6.72224 11.8316 6.78615 11.8508 6.84989 11.8434C6.91363 11.836 6.9738 11.8024 7.0214 11.7476C7.06901 11.6928 7.10152 11.6198 7.11407 11.5395L9.14285 1.84136L11.2103 11.7182C11.2275 11.8008 11.266 11.8734 11.3194 11.9245C11.3729 11.9756 11.4383 12.0022 11.5049 11.9999C11.5716 11.9976 11.6358 11.9666 11.687 11.9119C11.7383 11.8572 11.7736 11.782 11.7874 11.6985L13.1721 5.08264L14.7381 8.55614C14.7775 8.64334 14.8424 8.70696 14.9184 8.73305C14.9944 8.75914 15.0754 8.74559 15.1436 8.69534C15.1682 8.6776 15.1906 8.65537 15.2101 8.62937L16.402 7.10341H18.9786C19.0573 7.10341 19.1328 7.06337 19.1885 6.99211C19.2441 6.92084 19.2754 6.82418 19.2754 6.7234C19.2754 6.62262 19.2441 6.52596 19.1885 6.45469C19.1328 6.38343 19.0573 6.34339 18.9786 6.34339H16.2773C16.2383 6.34333 16.1997 6.35316 16.1637 6.37229C16.1277 6.39143 16.0951 6.4195 16.0676 6.45489L15.056 7.75522L13.3395 3.9479C13.3141 3.87681 13.2721 3.81751 13.2194 3.77808C13.1666 3.73865 13.1057 3.72101 13.0448 3.72758C12.9839 3.73414 12.9261 3.76459 12.8793 3.81476C12.8324 3.86494 12.7988 3.93239 12.783 4.00793L11.4947 10.1586L9.43348 0.301543C9.41971 0.217971 9.38434 0.142777 9.33309 0.0880926C9.28184 0.0334085 9.2177 0.00242336 9.15101 0.00013633C9.08432 -0.0021507 9.01897 0.0243938 8.96551 0.075487C8.91204 0.12658 8.87358 0.199242 8.85633 0.281751L6.76572 10.2701L4.91627 4.4229C4.89537 4.34624 4.85584 4.28016 4.80346 4.23435C4.75109 4.18855 4.68863 4.16543 4.62525 4.16838C4.56186 4.17133 4.50088 4.2002 4.45125 4.25075C4.40161 4.3013 4.36593 4.37089 4.34943 4.44929L3.645 7.81394L2.98386 6.97014C2.95625 6.93434 2.92335 6.90592 2.88708 6.88656C2.8508 6.86719 2.81188 6.85725 2.77258 6.85733H0.572209Z" fill="url(#paint1_linear_5238_30465)"/>
    <defs>
        <linearGradient id="paint0_linear_5238_30465" x1="-1.48889" y1="-0.400001" x2="20.8084" y2="5.67204" gradientUnits="userSpaceOnUse">
            <stop stop-color="#74DE6F"/>
            <stop offset="0.859375" stop-color="#CDE768"/>
        </linearGradient>
        <linearGradient id="paint1_linear_5238_30465" x1="-1.48889" y1="-0.400001" x2="20.8084" y2="5.67204" gradientUnits="userSpaceOnUse">
            <stop stop-color="#09FFB5"/>
            <stop offset="0.786458" stop-color="#0FD6CA"/>
        </linearGradient>
    </defs>
</svg>
