<svg width="15" height="14" viewBox="0 0 15 14" fill="none" xmlns="http://www.w3.org/2000/svg">
    <path d="M11.9499 7.21261C11.2899 7.2118 10.6572 6.94927 10.1906 6.48259C9.72388 6.01592 9.46135 5.38321 9.46054 4.72323C9.45845 4.12571 9.33793 3.53453 9.10593 2.98388C8.87394 2.43322 8.53508 1.93402 8.10896 1.51515C7.70014 1.10842 7.21379 0.78795 6.67877 0.572755C6.14374 0.357561 5.57094 0.25203 4.99436 0.262417C3.84891 0.290117 2.75936 0.763205 1.95708 1.58123C1.15479 2.39925 0.702957 3.49778 0.69751 4.64355V12.3868C0.697916 12.7452 0.840549 13.0889 1.0941 13.3423C1.34764 13.5957 1.69138 13.7381 2.04985 13.7383H12.923C13.2815 13.7381 13.6252 13.5957 13.8787 13.3423C14.1323 13.0889 14.2749 12.7452 14.2753 12.3868V9.53803C14.2747 8.92148 14.0295 8.33035 13.5936 7.89438C13.1576 7.45841 12.5665 7.21322 11.9499 7.21261ZM5.00585 0.893765H5.07711C6.04812 0.895428 6.97907 1.28103 7.66686 1.96644C8.03332 2.32655 8.32473 2.75575 8.52424 3.22921C8.72375 3.70267 8.8274 4.21099 8.82919 4.72476C8.83 5.55218 9.15905 6.34548 9.74412 6.93056C10.3292 7.51563 11.1225 7.84468 11.9499 7.84549C12.3983 7.84671 12.8279 8.02547 13.1448 8.34266C13.4617 8.65985 13.6401 9.08965 13.6409 9.53803V10.0935H1.32962V4.64355C1.33412 3.66308 1.72059 2.72297 2.40699 2.02283C3.0934 1.3227 4.02566 0.917679 5.00585 0.893765ZM12.923 13.107H2.04985C1.8589 13.1068 1.67582 13.0308 1.5408 12.8958C1.40577 12.7608 1.32983 12.5777 1.32962 12.3868V10.7249H2.12647V12.104H2.82984V10.7249H4.13238V12.104H4.83575V10.7249H6.13829V12.104H6.84167V10.7249H8.1442V12.104H8.84758V10.7249H10.1501V12.104H10.8535V10.7249H12.156V12.104H12.8594V10.7249H13.6409V12.3868C13.6407 12.5773 13.5651 12.76 13.4306 12.895C13.296 13.03 13.1135 13.1062 12.923 13.107Z" fill="#9932D0"/>
</svg>
