<svg width="17" height="8" viewBox="0 0 17 8" fill="none" xmlns="http://www.w3.org/2000/svg">
    <path d="M2.30248 0H15.0925C15.5182 0 15.9264 0.177265 16.2274 0.4928C16.5284 0.808334 16.6975 1.23629 16.6975 1.68252V6.31748C16.6975 6.76371 16.5284 7.19167 16.2274 7.5072C15.9264 7.82273 15.5182 8 15.0925 8H2.30248C1.87681 8 1.46858 7.82273 1.16759 7.5072C0.866603 7.19167 0.69751 6.76371 0.69751 6.31748V1.68012C0.698117 1.23431 0.867478 0.806964 1.1684 0.491949C1.46933 0.176934 1.87721 -4.54915e-07 2.30248 0ZM15.0925 0.660992H2.30248C2.04464 0.661203 1.79741 0.768617 1.61501 0.959672C1.43262 1.15073 1.32996 1.40982 1.32956 1.68012V3.58538H16.0655V1.68012C16.0651 1.40982 15.9624 1.15073 15.78 0.959672C15.5976 0.768617 15.3504 0.661203 15.0925 0.660992ZM2.30248 7.335H15.0925C15.3505 7.33479 15.5979 7.22727 15.7803 7.03604C15.9627 6.84481 16.0653 6.58551 16.0655 6.31507V4.24557H15.0589V6.02824H14.2243V4.24557H12.6813V6.02824H11.8467V4.24557H10.3036V6.02824H9.46904V4.24557H7.92598V6.02824H7.09139V4.24557H5.54757V6.02824H4.71299V4.24557H3.17069V6.02824H2.33763V4.24557H1.33109V6.31507C1.33129 6.58523 1.43365 6.84429 1.61573 7.03548C1.79782 7.22666 2.04477 7.33437 2.30248 7.335Z" fill="#0082E8"/>
</svg>
