<svg width="51" height="51" viewBox="0 0 51 51" fill="none" xmlns="http://www.w3.org/2000/svg">
<path d="M50.0701 25.0703C50.0701 28.3534 49.4234 31.6043 48.1671 34.6374C46.9107 37.6705 45.0692 40.4265 42.7477 42.748C40.4263 45.0695 37.6703 46.9109 34.6372 48.1673C31.604 49.4237 28.3531 50.0703 25.0701 50.0703C18.4397 50.0703 12.0808 47.4364 7.3924 42.748C2.70399 38.0596 0.0700684 31.7007 0.0700684 25.0703C0.0700684 18.4399 2.70399 12.0811 7.3924 7.39264C12.0808 2.70423 18.4397 0.0703125 25.0701 0.0703125C28.3531 0.0703125 31.604 0.716956 34.6372 1.97332C37.6703 3.22969 40.4263 5.07118 42.7477 7.39264C45.0692 9.71411 46.9107 12.4701 48.1671 15.5032C49.4234 18.5364 50.0701 21.7873 50.0701 25.0703ZM26.0864 9.03176C26.0864 8.76058 25.9787 8.50051 25.7869 8.30875C25.5951 8.117 25.3351 8.00927 25.0639 8.00927C24.7927 8.00927 24.5326 8.117 24.3409 8.30875C24.1491 8.50051 24.0414 8.76058 24.0414 9.03176C24.0414 9.30294 24.1491 9.56302 24.3409 9.75477C24.5326 9.94652 24.7927 10.0543 25.0639 10.0543C25.3351 10.0543 25.5951 9.94652 25.7869 9.75477C25.9787 9.56302 26.0864 9.30294 26.0864 9.03176ZM34.8162 9.76079C34.8162 9.54696 34.7312 9.34188 34.58 9.19068C34.4288 9.03948 34.2237 8.95454 34.0099 8.95454C33.7961 8.95454 33.591 9.03948 33.4398 9.19068C33.2886 9.34188 33.2036 9.54696 33.2036 9.76079C33.2036 9.97462 33.2886 10.1797 33.4398 10.3309C33.591 10.4821 33.7961 10.567 34.0099 10.567C34.2237 10.567 34.4288 10.4821 34.58 10.3309C34.7312 10.1797 34.8162 9.97462 34.8162 9.76079ZM16.9241 9.80404C16.9241 9.59102 16.8395 9.38673 16.6889 9.23611C16.5383 9.08549 16.334 9.00087 16.121 9.00087C15.908 9.00087 15.7037 9.08549 15.5531 9.23611C15.4024 9.38673 15.3178 9.59102 15.3178 9.80404C15.3178 9.90951 15.3386 10.0139 15.379 10.1114C15.4193 10.2088 15.4785 10.2974 15.5531 10.372C15.6276 10.4465 15.7162 10.5057 15.8136 10.5461C15.9111 10.5864 16.0155 10.6072 16.121 10.6072C16.2265 10.6072 16.3309 10.5864 16.4283 10.5461C16.5258 10.5057 16.6143 10.4465 16.6889 10.372C16.7635 10.2974 16.8226 10.2088 16.863 10.1114C16.9034 10.0139 16.9241 9.90951 16.9241 9.80404ZM32.9318 13.8415C32.9318 13.5113 32.8006 13.1947 32.5672 12.9612C32.3337 12.7277 32.0171 12.5966 31.6869 12.5966C31.3567 12.5966 31.0401 12.7277 30.8066 12.9612C30.5732 13.1947 30.442 13.5113 30.442 13.8415C30.442 14.1716 30.5732 14.4883 30.8066 14.7218C31.0401 14.9552 31.3567 15.0864 31.6869 15.0864C32.0171 15.0864 32.3337 14.9552 32.5672 14.7218C32.8006 14.4883 32.9318 14.1716 32.9318 13.8415ZM19.7198 13.8693C19.7198 13.5416 19.5896 13.2273 19.3579 12.9955C19.1261 12.7638 18.8118 12.6336 18.4841 12.6336C18.1564 12.6336 17.8421 12.7638 17.6104 12.9955C17.3787 13.2273 17.2485 13.5416 17.2485 13.8693C17.2485 14.197 17.3787 14.5113 17.6104 14.743C17.8421 14.9747 18.1564 15.1049 18.4841 15.1049C18.8118 15.1049 19.1261 14.9747 19.3579 14.743C19.5896 14.5113 19.7198 14.197 19.7198 13.8693ZM26.5343 15.1111C26.5343 14.7236 26.3804 14.3519 26.1063 14.0779C25.8323 13.8039 25.4607 13.65 25.0732 13.65C24.6856 13.65 24.314 13.8039 24.04 14.0779C23.766 14.3519 23.612 14.7236 23.612 15.1111C23.612 15.4986 23.766 15.8703 24.04 16.1443C24.314 16.4183 24.6856 16.5722 25.0732 16.5722C25.4607 16.5722 25.8323 16.4183 26.1063 16.1443C26.3804 15.8703 26.5343 15.4986 26.5343 15.1111ZM40.1665 17.1283C40.1665 16.8571 40.0587 16.597 39.867 16.4053C39.6752 16.2135 39.4151 16.1058 39.144 16.1058C38.8728 16.1058 38.6127 16.2135 38.421 16.4053C38.2292 16.597 38.1215 16.8571 38.1215 17.1283C38.1215 17.3994 38.2292 17.6595 38.421 17.8513C38.6127 18.043 38.8728 18.1508 39.144 18.1508C39.4151 18.1508 39.6752 18.043 39.867 17.8513C40.0587 17.6595 40.1665 17.3994 40.1665 17.1283ZM12.031 17.187C12.031 16.9158 11.9233 16.6557 11.7315 16.4639C11.5398 16.2722 11.2797 16.1645 11.0085 16.1645C10.7374 16.1645 10.4773 16.2722 10.2855 16.4639C10.0938 16.6557 9.98605 16.9158 9.98605 17.187C9.98605 17.4581 10.0938 17.7182 10.2855 17.91C10.4773 18.1017 10.7374 18.2094 11.0085 18.2094C11.2797 18.2094 11.5398 18.1017 11.7315 17.91C11.9233 17.7182 12.031 17.4581 12.031 17.187ZM24.6222 20.1401C24.6222 19.4765 24.3585 18.8401 23.8893 18.3708C23.42 17.9016 22.7836 17.638 22.12 17.638C21.4564 17.638 20.8199 17.9016 20.3507 18.3708C19.8814 18.8401 19.6178 19.4765 19.6178 20.1401C19.6178 20.8037 19.8814 21.4402 20.3507 21.9094C20.8199 22.3787 21.4564 22.6423 22.12 22.6423C22.7836 22.6423 23.42 22.3787 23.8893 21.9094C24.3585 21.4402 24.6222 20.8037 24.6222 20.1401ZM30.5501 20.1278C30.5501 19.4658 30.2871 18.8309 29.8191 18.3628C29.351 17.8948 28.7161 17.6318 28.0541 17.6318C27.3922 17.6318 26.7573 17.8948 26.2892 18.3628C25.8211 18.8309 25.5581 19.4658 25.5581 20.1278C25.5581 20.7897 25.8211 21.4246 26.2892 21.8927C26.7573 22.3608 27.3922 22.6238 28.0541 22.6238C28.7161 22.6238 29.351 22.3608 29.8191 21.8927C30.2871 21.4246 30.5501 20.7897 30.5501 20.1278ZM17.7428 20.2235C17.7428 19.8352 17.5885 19.4628 17.3139 19.1882C17.0393 18.9136 16.6669 18.7593 16.2785 18.7593C16.0862 18.7593 15.8958 18.7972 15.7182 18.8708C15.5405 18.9443 15.3791 19.0522 15.2432 19.1882C15.1072 19.3241 14.9993 19.4855 14.9258 19.6632C14.8522 19.8408 14.8143 20.0312 14.8143 20.2235C14.8143 20.4158 14.8522 20.6062 14.9258 20.7839C14.9993 20.9615 15.1072 21.1229 15.2432 21.2589C15.3791 21.3949 15.5405 21.5027 15.7182 21.5763C15.8958 21.6499 16.0862 21.6878 16.2785 21.6878C16.6669 21.6878 17.0393 21.5335 17.3139 21.2589C17.5885 20.9843 17.7428 20.6119 17.7428 20.2235ZM35.3567 20.1741C35.3567 19.9826 35.319 19.793 35.2458 19.6161C35.1725 19.4392 35.0651 19.2785 34.9297 19.1431C34.7943 19.0077 34.6336 18.9003 34.4567 18.827C34.2798 18.7538 34.0902 18.7161 33.8987 18.7161C33.512 18.7161 33.1411 18.8697 32.8677 19.1431C32.5943 19.4165 32.4406 19.7874 32.4406 20.1741C32.4406 20.5608 32.5943 20.9317 32.8677 21.2051C33.1411 21.4785 33.512 21.6322 33.8987 21.6322C34.0902 21.6322 34.2798 21.5944 34.4567 21.5212C34.6336 21.4479 34.7943 21.3405 34.9297 21.2051C35.0651 21.0697 35.1725 20.909 35.2458 20.7321C35.319 20.5552 35.3567 20.3656 35.3567 20.1741ZM33.5404 25.2711C33.5404 24.9425 33.4756 24.6171 33.3499 24.3136C33.2241 24.01 33.0398 23.7342 32.8075 23.5018C32.5751 23.2695 32.2993 23.0852 31.9957 22.9594C31.6922 22.8337 31.3668 22.7689 31.0382 22.7689C30.7096 22.7689 30.3842 22.8337 30.0807 22.9594C29.7771 23.0852 29.5012 23.2695 29.2689 23.5018C29.0366 23.7342 28.8522 24.01 28.7265 24.3136C28.6008 24.6171 28.536 24.9425 28.536 25.2711C28.536 25.9347 28.7997 26.5712 29.2689 27.0404C29.7381 27.5096 30.3746 27.7733 31.0382 27.7733C31.3668 27.7733 31.6922 27.7085 31.9957 27.5828C32.2993 27.4571 32.5751 27.2727 32.8075 27.0404C33.0398 26.8081 33.2241 26.5322 33.3499 26.2286C33.4756 25.9251 33.5404 25.5997 33.5404 25.2711ZM21.669 25.2958C21.669 24.6314 21.405 23.9942 20.9352 23.5243C20.4654 23.0545 19.8282 22.7906 19.1637 22.7906C18.4993 22.7906 17.8621 23.0545 17.3923 23.5243C16.9224 23.9942 16.6585 24.6314 16.6585 25.2958C16.6585 25.9603 16.9224 26.5975 17.3923 27.0673C17.8621 27.5371 18.4993 27.8011 19.1637 27.8011C19.8282 27.8011 20.4654 27.5371 20.9352 27.0673C21.405 26.5975 21.669 25.9603 21.669 25.2958ZM39.5363 25.2588C39.5363 25.0961 39.5042 24.935 39.442 24.7847C39.3797 24.6344 39.2885 24.4979 39.1735 24.3828C39.0584 24.2678 38.9219 24.1766 38.7716 24.1143C38.6213 24.0521 38.4602 24.02 38.2976 24.02C37.969 24.02 37.6539 24.1505 37.4216 24.3828C37.1893 24.6151 37.0588 24.9302 37.0588 25.2588C37.0588 25.5873 37.1893 25.9024 37.4216 26.1347C37.6539 26.367 37.969 26.4975 38.2976 26.4975C38.4602 26.4975 38.6213 26.4654 38.7716 26.4032C38.9219 26.3409 39.0584 26.2497 39.1735 26.1347C39.2885 26.0196 39.3797 25.8831 39.442 25.7328C39.5042 25.5825 39.5363 25.4214 39.5363 25.2588ZM13.14 25.3236C13.14 24.9935 13.0088 24.6768 12.7754 24.4433C12.5419 24.2099 12.2253 24.0787 11.8951 24.0787C11.5649 24.0787 11.2483 24.2099 11.0148 24.4433C10.7814 24.6768 10.6502 24.9935 10.6502 25.3236C10.6502 25.6538 10.7814 25.9704 11.0148 26.2039C11.2483 26.4374 11.5649 26.5685 11.8951 26.5685C12.2253 26.5685 12.5419 26.4374 12.7754 26.2039C13.0088 25.9704 13.14 25.6538 13.14 25.3236ZM43.7961 25.2402C43.7961 25.1356 43.7755 25.0319 43.7355 24.9352C43.6954 24.8385 43.6367 24.7507 43.5627 24.6767C43.4887 24.6027 43.4008 24.5439 43.3041 24.5039C43.2075 24.4638 43.1038 24.4432 42.9991 24.4432C42.7878 24.4432 42.5851 24.5272 42.4356 24.6767C42.2861 24.8261 42.2022 25.0288 42.2022 25.2402C42.2022 25.4516 42.2861 25.6543 42.4356 25.8038C42.5851 25.9532 42.7878 26.0372 42.9991 26.0372C43.1038 26.0372 43.2075 26.0166 43.3041 25.9765C43.4008 25.9365 43.4887 25.8778 43.5627 25.8038C43.6367 25.7298 43.6954 25.6419 43.7355 25.5452C43.7755 25.4485 43.7961 25.3449 43.7961 25.2402ZM7.99976 25.3298C7.99976 25.1168 7.91514 24.9125 7.76452 24.7619C7.6139 24.6113 7.40961 24.5266 7.1966 24.5266C6.98359 24.5266 6.7793 24.6113 6.62868 24.7619C6.47805 24.9125 6.39344 25.1168 6.39344 25.3298C6.39344 25.5428 6.47805 25.7471 6.62868 25.8977C6.7793 26.0483 6.98359 26.133 7.1966 26.133C7.40961 26.133 7.6139 26.0483 7.76452 25.8977C7.91514 25.7471 7.99976 25.5428 7.99976 25.3298ZM24.6438 30.4361C24.6438 29.7716 24.3798 29.1344 23.91 28.6646C23.4402 28.1948 22.803 27.9308 22.1385 27.9308C21.4741 27.9308 20.8369 28.1948 20.367 28.6646C19.8972 29.1344 19.6333 29.7716 19.6333 30.4361C19.6333 31.1005 19.8972 31.7377 20.367 32.2075C20.8369 32.6774 21.4741 32.9413 22.1385 32.9413C22.803 32.9413 23.4402 32.6774 23.91 32.2075C24.3798 31.7377 24.6438 31.1005 24.6438 30.4361ZM30.5841 30.4237C30.5841 29.7601 30.3205 29.1237 29.8512 28.6544C29.382 28.1852 28.7455 27.9215 28.0819 27.9215C27.4183 27.9215 26.7819 28.1852 26.3126 28.6544C25.8434 29.1237 25.5798 29.7601 25.5798 30.4237C25.5798 31.0873 25.8434 31.7238 26.3126 32.193C26.7819 32.6623 27.4183 32.9259 28.0819 32.9259C28.7455 32.9259 29.382 32.6623 29.8512 32.193C30.3205 31.7238 30.5841 31.0873 30.5841 30.4237ZM35.3815 30.3527C35.3815 29.9651 35.2275 29.5935 34.9535 29.3195C34.6795 29.0455 34.3078 28.8915 33.9203 28.8915C33.5328 28.8915 33.1611 29.0455 32.8871 29.3195C32.6131 29.5935 32.4592 29.9651 32.4592 30.3527C32.4592 30.7402 32.6131 31.1118 32.8871 31.3858C33.1611 31.6599 33.5328 31.8138 33.9203 31.8138C34.3078 31.8138 34.6795 31.6599 34.9535 31.3858C35.2275 31.1118 35.3815 30.7402 35.3815 30.3527ZM17.7644 30.399C17.7644 30.0115 17.6104 29.6398 17.3364 29.3658C17.0624 29.0918 16.6908 28.9379 16.3032 28.9379C15.9157 28.9379 15.5441 29.0918 15.2701 29.3658C14.996 29.6398 14.8421 30.0115 14.8421 30.399C14.8421 30.7865 14.996 31.1582 15.2701 31.4322C15.5441 31.7062 15.9157 31.8601 16.3032 31.8601C16.6908 31.8601 17.0624 31.7062 17.3364 31.4322C17.6104 31.1582 17.7644 30.7865 17.7644 30.399ZM40.2097 33.3861C40.2097 33.1158 40.1023 32.8565 39.9111 32.6653C39.7199 32.4741 39.4607 32.3667 39.1903 32.3667C38.9199 32.3667 38.6606 32.4741 38.4695 32.6653C38.2783 32.8565 38.1709 33.1158 38.1709 33.3861C38.1709 33.6565 38.2783 33.9158 38.4695 34.107C38.6606 34.2981 38.9199 34.4055 39.1903 34.4055C39.4607 34.4055 39.7199 34.2981 39.9111 34.107C40.1023 33.9158 40.2097 33.6565 40.2097 33.3861ZM12.0774 33.4448C12.0774 33.1728 11.9693 32.912 11.777 32.7196C11.5846 32.5273 11.3238 32.4193 11.0518 32.4193C10.7798 32.4193 10.5189 32.5273 10.3266 32.7196C10.1343 32.912 10.0262 33.1728 10.0262 33.4448C10.0262 33.7168 10.1343 33.9777 10.3266 34.17C10.5189 34.3624 10.7798 34.4704 11.0518 34.4704C11.3238 34.4704 11.5846 34.3624 11.777 34.17C11.9693 33.9777 12.0774 33.7168 12.0774 33.4448ZM26.488 35.462C26.488 35.0745 26.334 34.7029 26.06 34.4288C25.786 34.1548 25.4143 34.0009 25.0268 34.0009C24.6393 34.0009 24.2677 34.1548 23.9936 34.4288C23.7196 34.7029 23.5657 35.0745 23.5657 35.462C23.5657 35.8495 23.7196 36.2212 23.9936 36.4952C24.2677 36.7692 24.6393 36.9231 25.0268 36.9231C25.4143 36.9231 25.786 36.7692 26.06 36.4952C26.334 36.2212 26.488 35.8495 26.488 35.462ZM19.7599 36.7347C19.7599 36.4045 19.6288 36.0879 19.3953 35.8544C19.1618 35.621 18.8452 35.4898 18.515 35.4898C18.1849 35.4898 17.8682 35.621 17.6347 35.8544C17.4013 36.0879 17.2701 36.4045 17.2701 36.7347C17.2701 37.0649 17.4013 37.3815 17.6347 37.615C17.8682 37.8485 18.1849 37.9796 18.515 37.9796C18.8452 37.9796 19.1618 37.8485 19.3953 37.615C19.6288 37.3815 19.7599 37.0649 19.7599 36.7347ZM32.9689 36.7131C32.9689 36.3837 32.838 36.0679 32.6052 35.835C32.3723 35.6021 32.0564 35.4713 31.7271 35.4713C31.3977 35.4713 31.0818 35.6021 30.849 35.835C30.6161 36.0679 30.4852 36.3837 30.4852 36.7131C30.4852 37.0424 30.6161 37.3583 30.849 37.5912C31.0818 37.8241 31.3977 37.9549 31.7271 37.9549C32.0564 37.9549 32.3723 37.8241 32.6052 37.5912C32.838 37.3583 32.9689 37.0424 32.9689 36.7131ZM16.9828 40.8C16.9828 40.5869 16.8982 40.3827 16.7476 40.232C16.597 40.0814 16.3927 39.9968 16.1797 39.9968C15.9667 39.9968 15.7624 40.0814 15.6117 40.232C15.4611 40.3827 15.3765 40.5869 15.3765 40.8C15.3765 40.9054 15.3973 41.0099 15.4376 41.1073C15.478 41.2048 15.5372 41.2933 15.6117 41.3679C15.6863 41.4425 15.7749 41.5016 15.8723 41.542C15.9698 41.5823 16.0742 41.6031 16.1797 41.6031C16.2851 41.6031 16.3896 41.5823 16.487 41.542C16.5845 41.5016 16.673 41.4425 16.7476 41.3679C16.8222 41.2933 16.8813 41.2048 16.9217 41.1073C16.9621 41.0099 16.9828 40.9054 16.9828 40.8ZM34.8934 40.7691C34.8934 40.5544 34.8081 40.3486 34.6563 40.1968C34.5045 40.045 34.2987 39.9597 34.084 39.9597C33.8694 39.9597 33.6635 40.045 33.5117 40.1968C33.36 40.3486 33.2747 40.5544 33.2747 40.7691C33.2747 40.9837 33.36 41.1896 33.5117 41.3414C33.6635 41.4931 33.8694 41.5784 34.084 41.5784C34.2987 41.5784 34.5045 41.4931 34.6563 41.3414C34.8081 41.1896 34.8934 40.9837 34.8934 40.7691ZM26.0555 41.5382C26.0555 41.404 26.029 41.271 25.9777 41.147C25.9263 41.0229 25.851 40.9102 25.756 40.8152C25.6611 40.7203 25.5483 40.645 25.4243 40.5936C25.3002 40.5422 25.1673 40.5158 25.033 40.5158C24.8987 40.5158 24.7658 40.5422 24.6417 40.5936C24.5177 40.645 24.4049 40.7203 24.31 40.8152C24.215 40.9102 24.1397 41.0229 24.0883 41.147C24.037 41.271 24.0105 41.404 24.0105 41.5382C24.0105 41.8094 24.1182 42.0695 24.31 42.2613C24.5017 42.453 24.7618 42.5607 25.033 42.5607C25.3042 42.5607 25.5643 42.453 25.756 42.2613C25.9478 42.0695 26.0555 41.8094 26.0555 41.5382Z" fill="#0032AD"/>
<path d="M25.0639 10.0543C25.6286 10.0543 26.0864 9.59647 26.0864 9.03176C26.0864 8.46706 25.6286 8.00927 25.0639 8.00927C24.4992 8.00927 24.0414 8.46706 24.0414 9.03176C24.0414 9.59647 24.4992 10.0543 25.0639 10.0543Z" fill="white"/>
<path d="M34.0099 10.567C34.4552 10.567 34.8162 10.2061 34.8162 9.76079C34.8162 9.31551 34.4552 8.95454 34.0099 8.95454C33.5646 8.95454 33.2036 9.31551 33.2036 9.76079C33.2036 10.2061 33.5646 10.567 34.0099 10.567Z" fill="white"/>
<path d="M16.121 10.6072C16.5646 10.6072 16.9241 10.2476 16.9241 9.80404C16.9241 9.36046 16.5646 9.00087 16.121 9.00087C15.6774 9.00087 15.3178 9.36046 15.3178 9.80404C15.3178 10.2476 15.6774 10.6072 16.121 10.6072Z" fill="white"/>
<path d="M31.6869 15.0864C32.3744 15.0864 32.9318 14.529 32.9318 13.8415C32.9318 13.1539 32.3744 12.5966 31.6869 12.5966C30.9994 12.5966 30.442 13.1539 30.442 13.8415C30.442 14.529 30.9994 15.0864 31.6869 15.0864Z" fill="white"/>
<path d="M18.4841 15.1049C19.1666 15.1049 19.7198 14.5517 19.7198 13.8693C19.7198 13.1869 19.1666 12.6336 18.4841 12.6336C17.8017 12.6336 17.2485 13.1869 17.2485 13.8693C17.2485 14.5517 17.8017 15.1049 18.4841 15.1049Z" fill="white"/>
<path d="M25.0732 16.5722C25.8801 16.5722 26.5343 15.9181 26.5343 15.1111C26.5343 14.3041 25.8801 13.65 25.0732 13.65C24.2662 13.65 23.612 14.3041 23.612 15.1111C23.612 15.9181 24.2662 16.5722 25.0732 16.5722Z" fill="white"/>
<path d="M39.144 18.1508C39.7087 18.1508 40.1665 17.693 40.1665 17.1283C40.1665 16.5636 39.7087 16.1058 39.144 16.1058C38.5793 16.1058 38.1215 16.5636 38.1215 17.1283C38.1215 17.693 38.5793 18.1508 39.144 18.1508Z" fill="white"/>
<path d="M11.0085 18.2094C11.5732 18.2094 12.031 17.7517 12.031 17.187C12.031 16.6223 11.5732 16.1645 11.0085 16.1645C10.4438 16.1645 9.98605 16.6223 9.98605 17.187C9.98605 17.7517 10.4438 18.2094 11.0085 18.2094Z" fill="white"/>
<path d="M22.12 22.6423C23.5019 22.6423 24.6222 21.522 24.6222 20.1401C24.6222 18.7582 23.5019 17.638 22.12 17.638C20.7381 17.638 19.6178 18.7582 19.6178 20.1401C19.6178 21.522 20.7381 22.6423 22.12 22.6423Z" fill="white"/>
<path d="M28.0541 22.6238C29.4326 22.6238 30.5501 21.5063 30.5501 20.1278C30.5501 18.7493 29.4326 17.6318 28.0541 17.6318C26.6756 17.6318 25.5581 18.7493 25.5581 20.1278C25.5581 21.5063 26.6756 22.6238 28.0541 22.6238Z" fill="white"/>
<path d="M16.2785 21.6878C17.0872 21.6878 17.7428 21.0322 17.7428 20.2235C17.7428 19.4149 17.0872 18.7593 16.2785 18.7593C15.4699 18.7593 14.8143 19.4149 14.8143 20.2235C14.8143 21.0322 15.4699 21.6878 16.2785 21.6878Z" fill="white"/>
<path d="M33.8987 21.6322C34.7039 21.6322 35.3567 20.9794 35.3567 20.1741C35.3567 19.3689 34.7039 18.7161 33.8987 18.7161C33.0934 18.7161 32.4406 19.3689 32.4406 20.1741C32.4406 20.9794 33.0934 21.6322 33.8987 21.6322Z" fill="white"/>
<path d="M31.0382 27.7733C32.4201 27.7733 33.5404 26.653 33.5404 25.2711C33.5404 23.8892 32.4201 22.7689 31.0382 22.7689C29.6563 22.7689 28.536 23.8892 28.536 25.2711C28.536 26.653 29.6563 27.7733 31.0382 27.7733Z" fill="white"/>
<path d="M19.1637 27.8011C20.5473 27.8011 21.669 26.6794 21.669 25.2958C21.669 23.9122 20.5473 22.7906 19.1637 22.7906C17.7801 22.7906 16.6585 23.9122 16.6585 25.2958C16.6585 26.6794 17.7801 27.8011 19.1637 27.8011Z" fill="white"/>
<path d="M38.2976 26.4975C38.9817 26.4975 39.5363 25.9429 39.5363 25.2588C39.5363 24.5746 38.9817 24.02 38.2976 24.02C37.6134 24.02 37.0588 24.5746 37.0588 25.2588C37.0588 25.9429 37.6134 26.4975 38.2976 26.4975Z" fill="white"/>
<path d="M11.8951 26.5685C12.5826 26.5685 13.14 26.0112 13.14 25.3236C13.14 24.6361 12.5826 24.0787 11.8951 24.0787C11.2076 24.0787 10.6502 24.6361 10.6502 25.3236C10.6502 26.0112 11.2076 26.5685 11.8951 26.5685Z" fill="white"/>
<path d="M42.9991 26.0372C43.4393 26.0372 43.7961 25.6804 43.7961 25.2402C43.7961 24.8001 43.4393 24.4432 42.9991 24.4432C42.559 24.4432 42.2022 24.8001 42.2022 25.2402C42.2022 25.6804 42.559 26.0372 42.9991 26.0372Z" fill="white"/>
<path d="M7.1966 26.133C7.64017 26.133 7.99976 25.7734 7.99976 25.3298C7.99976 24.8862 7.64017 24.5266 7.1966 24.5266C6.75302 24.5266 6.39344 24.8862 6.39344 25.3298C6.39344 25.7734 6.75302 26.133 7.1966 26.133Z" fill="white"/>
<path d="M22.1385 32.9413C23.5221 32.9413 24.6438 31.8197 24.6438 30.4361C24.6438 29.0525 23.5221 27.9308 22.1385 27.9308C20.7549 27.9308 19.6333 29.0525 19.6333 30.4361C19.6333 31.8197 20.7549 32.9413 22.1385 32.9413Z" fill="white"/>
<path d="M28.0819 32.9259C29.4638 32.9259 30.5841 31.8056 30.5841 30.4237C30.5841 29.0418 29.4638 27.9215 28.0819 27.9215C26.7 27.9215 25.5798 29.0418 25.5798 30.4237C25.5798 31.8056 26.7 32.9259 28.0819 32.9259Z" fill="white"/>
<path d="M33.9203 31.8138C34.7273 31.8138 35.3815 31.1596 35.3815 30.3527C35.3815 29.5457 34.7273 28.8915 33.9203 28.8915C33.1133 28.8915 32.4592 29.5457 32.4592 30.3527C32.4592 31.1596 33.1133 31.8138 33.9203 31.8138Z" fill="white"/>
<path d="M16.3032 31.8601C17.1102 31.8601 17.7644 31.206 17.7644 30.399C17.7644 29.592 17.1102 28.9379 16.3032 28.9379C15.4963 28.9379 14.8421 29.592 14.8421 30.399C14.8421 31.206 15.4963 31.8601 16.3032 31.8601Z" fill="white"/>
<path d="M39.1903 34.4055C39.7533 34.4055 40.2097 33.9491 40.2097 33.3861C40.2097 32.8231 39.7533 32.3667 39.1903 32.3667C38.6273 32.3667 38.1709 32.8231 38.1709 33.3861C38.1709 33.9491 38.6273 34.4055 39.1903 34.4055Z" fill="white"/>
<path d="M11.0518 34.4704C11.6182 34.4704 12.0774 34.0112 12.0774 33.4448C12.0774 32.8784 11.6182 32.4193 11.0518 32.4193C10.4854 32.4193 10.0262 32.8784 10.0262 33.4448C10.0262 34.0112 10.4854 34.4704 11.0518 34.4704Z" fill="white"/>
<path d="M25.0268 36.9231C25.8338 36.9231 26.488 36.269 26.488 35.462C26.488 34.655 25.8338 34.0009 25.0268 34.0009C24.2199 34.0009 23.5657 34.655 23.5657 35.462C23.5657 36.269 24.2199 36.9231 25.0268 36.9231Z" fill="white"/>
<path d="M18.515 37.9796C19.2026 37.9796 19.7599 37.4223 19.7599 36.7347C19.7599 36.0472 19.2026 35.4898 18.515 35.4898C17.8275 35.4898 17.2701 36.0472 17.2701 36.7347C17.2701 37.4223 17.8275 37.9796 18.515 37.9796Z" fill="white"/>
<path d="M31.7271 37.9549C32.4129 37.9549 32.9689 37.3989 32.9689 36.7131C32.9689 36.0273 32.4129 35.4713 31.7271 35.4713C31.0412 35.4713 30.4852 36.0273 30.4852 36.7131C30.4852 37.3989 31.0412 37.9549 31.7271 37.9549Z" fill="white"/>
<path d="M16.1797 41.6031C16.6232 41.6031 16.9828 41.2435 16.9828 40.8C16.9828 40.3564 16.6232 39.9968 16.1797 39.9968C15.7361 39.9968 15.3765 40.3564 15.3765 40.8C15.3765 41.2435 15.7361 41.6031 16.1797 41.6031Z" fill="white"/>
<path d="M34.084 41.5784C34.531 41.5784 34.8934 41.2161 34.8934 40.7691C34.8934 40.3221 34.531 39.9597 34.084 39.9597C33.637 39.9597 33.2747 40.3221 33.2747 40.7691C33.2747 41.2161 33.637 41.5784 34.084 41.5784Z" fill="white"/>
<path d="M25.033 42.5607C25.5977 42.5607 26.0555 42.103 26.0555 41.5382C26.0555 40.9735 25.5977 40.5158 25.033 40.5158C24.4683 40.5158 24.0105 40.9735 24.0105 41.5382C24.0105 42.103 24.4683 42.5607 25.033 42.5607Z" fill="white"/>
</svg>
