<svg width="50" height="50" viewBox="0 0 50 50" fill="none" xmlns="http://www.w3.org/2000/svg">
<path d="M13.4077 0.0299865L12.9347 0.291075C12.8287 0.349095 12.777 0.437386 12.7796 0.555948L12.8401 2.40628C12.8425 2.52265 12.8766 2.63527 12.9385 2.73169L14.3385 4.91879C14.3587 4.95158 14.3865 4.97554 14.4218 4.99068C14.4571 5.00581 14.4924 5.02095 14.5277 5.03609C16.0564 5.67178 16.1851 5.67178 16.0564 5.67178L13.3888 5.11555C13.3106 5.11555 13.2992 5.1433 13.3547 5.19879C13.3774 5.22402 13.4077 5.23285 13.4455 5.22528C13.6953 5.16852 14.0774 5.21015 14.2515 5.2215L16.0564 5.67178C13.5136 5.67178 8.67024 5.0096 6.7745 6.82209C6.20944 6.44874 5.68852 6.00098 5.21175 5.4788C4.83336 5.06636 4.70092 4.47607 3.96685 4.31714C3.84829 4.29192 3.76756 4.22255 3.72468 4.10903C3.5481 3.63226 3.28196 3.43171 2.92628 3.50739H2.29815C5.4123 -0.0532598 8.90862 -0.0835305 13.4077 0.0299865Z" fill="#53FBBF"/>
<path d="M13.4077 0.0299865L25.7772 0.0148505L26.674 0.109448C26.7447 0.117016 26.7623 0.151071 26.727 0.211614C26.6362 0.360447 26.6438 0.475225 26.7497 0.555948C26.8405 0.624059 26.8784 0.714871 26.8632 0.828388L26.3448 4.37012C26.3196 4.55427 26.3965 4.66652 26.5757 4.70689L27.0297 4.81662C27.1483 4.84437 27.171 4.90743 27.0978 5.00581C27.0398 5.08906 26.9566 5.12312 26.8481 5.10798C26.7396 5.09537 26.6034 5.68337 26.5757 5.68337C22.5168 5.80446 18.4541 5.25429 14.2515 5.2215C14.0774 5.21015 13.6953 5.16852 13.4455 5.22528C13.4077 5.23285 13.3774 5.22402 13.3547 5.19879C13.2992 5.1433 13.3106 5.11555 13.3888 5.11555L16.0564 5.67178C16.1851 5.67178 16.0564 5.67178 14.5277 5.03609C14.4924 5.02095 14.4571 5.00581 14.4218 4.99068C14.3865 4.97554 14.3587 4.95158 14.3385 4.91879L12.9385 2.73169C12.8766 2.63527 12.8425 2.52265 12.8401 2.40628L12.7796 0.555948C12.777 0.437386 12.8287 0.349095 12.9347 0.291075L13.4077 0.0299865Z" fill="#40F1F5"/>
<path d="M25.7772 0.0148505C29.8008 0.00980534 33.8206 0.0060219 37.8365 0.0034993C40.2406 0.0034993 42.0203 0.183864 43.1756 0.544596C47.1285 1.77058 49.3964 4.71193 49.9791 9.36865L49.5401 8.89566C49.4569 8.80485 49.356 8.7771 49.2374 8.81242C47.6633 9.28414 45.9871 9.25387 44.2086 8.72161C43.5843 6.42856 42.0934 5.68313 39.7285 5.68313C31.8227 5.68818 23.932 5.68439 16.0564 5.67178L14.2515 5.2215C18.4541 5.25429 22.5168 5.80446 26.5757 5.68337C26.6034 5.68337 26.7396 5.09537 26.8481 5.10798C26.9566 5.12312 27.0398 5.08906 27.0978 5.00581C27.171 4.90743 27.1483 4.84437 27.0297 4.81662L26.5757 4.70689C26.3965 4.66652 26.3196 4.55427 26.3448 4.37012L26.8632 0.828388C26.8784 0.714871 26.8405 0.624059 26.7497 0.555948C26.6438 0.475225 26.6362 0.360447 26.727 0.211614C26.7623 0.151071 26.7447 0.117016 26.674 0.109448L25.7772 0.0148505Z" fill="#59C2FD"/>
<path d="M2.29815 3.50739H2.92628C2.86321 3.56289 2.78753 3.5982 2.69924 3.61334C2.58068 3.63604 2.49743 3.70163 2.4495 3.8101C1.81381 5.31988 0.735398 7.34805 0.568906 8.99405C0.447821 10.1872 0.445299 11.3855 0.561338 12.5888C0.578996 12.7502 0.666027 12.8473 0.822428 12.8801C1.28154 12.9835 1.6902 13.198 2.04841 13.5234C2.10257 13.5727 2.1685 13.6043 2.23761 13.6142L4.91661 14.0191C5.01247 14.0342 5.0604 13.9938 5.0604 13.898L5.15121 9.94002C5.15373 9.92239 5.15752 9.90469 5.16256 9.88705C5.27103 9.57677 5.42743 9.50361 5.63176 9.66758L5.62041 23.9518C5.17644 24.0477 5.03139 23.5066 5.18526 22.3285C5.2004 22.2125 5.15373 22.1343 5.04526 22.0939C4.7148 21.9653 4.43731 22.0296 4.2128 22.2869C4.12199 22.3878 4.00973 22.4395 3.87604 22.442L2.3095 22.4609C2.23873 22.4634 2.16873 22.4391 2.11274 22.3928C1.62083 21.9842 1.09361 21.9123 0.531067 22.1772C0.39737 22.2402 0.312862 22.1999 0.277545 22.0561L0.0694314 21.1933C-0.016337 14.9171 -0.0226432 10.8822 0.0505122 9.08864C0.128713 7.17399 0.877925 5.31357 2.29815 3.50739Z" fill="#FD9E29"/>
<path d="M2.92628 3.50739C3.28196 3.43171 3.5481 3.63226 3.72468 4.10903C3.76756 4.22255 3.84829 4.29192 3.96685 4.31714C4.70092 4.47607 4.83336 5.06636 5.21175 5.4788C5.68852 6.00098 6.20944 6.44874 6.7745 6.82209C6.09088 7.58896 5.70997 8.53746 5.63176 9.66758C5.42743 9.50361 5.27103 9.57677 5.16256 9.88705C5.15752 9.90469 5.15373 9.92239 5.15121 9.94002L5.0604 13.898C5.0604 13.9938 5.01247 14.0342 4.91661 14.0191L2.23761 13.6142C2.1685 13.6043 2.10257 13.5727 2.04841 13.5234C1.6902 13.198 1.28154 12.9835 0.822428 12.8801C0.666027 12.8473 0.578996 12.7502 0.561338 12.5888C0.445299 11.3855 0.447821 10.1872 0.568906 8.99405C0.735398 7.34805 1.81381 5.31988 2.4495 3.8101C2.49743 3.70163 2.58068 3.63604 2.69924 3.61334C2.78753 3.5982 2.86321 3.56289 2.92628 3.50739Z" fill="#FDB90F"/>
<path d="M44.2086 8.72161C45.9871 9.25387 47.6633 9.28414 49.2374 8.81242C49.356 8.7771 49.4569 8.80485 49.5401 8.89566L49.9791 9.36865L49.9904 18.8284L49.9223 21.2274C49.9223 21.2451 49.9148 21.2564 49.8996 21.2614C49.8593 21.2766 49.8176 21.2905 49.7747 21.3031C49.6713 21.3308 49.6196 21.2917 49.6196 21.1858V20.9928C49.6195 20.9457 49.6047 20.9 49.5775 20.8625C49.5502 20.825 49.5119 20.7977 49.4683 20.7847C48.212 20.3874 46.8498 20.6598 45.2265 20.2398C45.1599 20.2225 45.0889 20.2251 45.0222 20.2474C44.8658 20.2978 44.7346 20.2587 44.6286 20.1301C44.5555 20.0443 44.5164 20.0582 44.5113 20.1717L44.3789 22.9945C44.278 18.4336 44.2591 15.5011 44.3221 14.1969C44.4331 11.9568 44.3953 10.1317 44.2086 8.72161Z" fill="#6F9EFC"/>
<path d="M18.69 11.1774L18.5424 11.3779C18.5278 11.3982 18.5181 11.4217 18.5141 11.4463C18.51 11.471 18.5118 11.4961 18.5192 11.5197C18.5265 11.5433 18.5393 11.5647 18.5565 11.5822C18.5737 11.5996 18.5948 11.6126 18.6181 11.6201L18.743 11.6617C18.7833 11.6743 18.8023 11.7021 18.7997 11.7449C18.6257 13.2926 19.3635 15.2148 19.9652 16.7624L16.6618 16.7851C15.567 15.6575 14.4356 14.5589 13.2677 13.4893C12.5752 12.8536 12.6925 12.3163 11.3909 12.6606C12.1426 11.7147 12.9107 11.2316 13.6953 11.2114C15.3551 11.1685 17.02 11.1572 18.69 11.1774Z" fill="#53FBBF"/>
<path d="M18.69 11.1774H25.9778L25.6751 11.2833C25.5546 11.3264 25.4486 11.4028 25.3691 11.5038C25.2895 11.6048 25.2395 11.7263 25.2248 11.8547C25.1088 12.9142 24.9776 13.9812 24.8313 15.0559C24.8189 15.1405 24.7864 15.2209 24.7367 15.2905C24.3104 15.8631 24.2675 16.3462 24.608 16.7397L19.9652 16.7624C19.3635 15.2148 18.6257 13.2926 18.7997 11.7449C18.8023 11.7021 18.7833 11.6743 18.743 11.6617L18.6181 11.6201C18.5948 11.6126 18.5737 11.5996 18.5565 11.5822C18.5393 11.5647 18.5265 11.5433 18.5192 11.5197C18.5118 11.4961 18.51 11.471 18.5141 11.4463C18.5181 11.4217 18.5278 11.3982 18.5424 11.3779L18.69 11.1774Z" fill="#40F1F5"/>
<path d="M25.9778 11.1774H38.6993C38.8052 11.1774 38.8582 11.2291 38.8582 11.3325L38.8393 16.5051C38.8393 16.6363 38.7737 16.7019 38.6425 16.7019L24.608 16.7397C24.2675 16.3462 24.3104 15.8631 24.7367 15.2905C24.7864 15.2209 24.8189 15.1405 24.8313 15.0559C24.9776 13.9812 25.1088 12.9142 25.2248 11.8547C25.2395 11.7263 25.2895 11.6048 25.3691 11.5038C25.4486 11.4028 25.5546 11.3264 25.6751 11.2833L25.9778 11.1774Z" fill="#59C2FD"/>
<path d="M11.3909 12.6606C12.6925 12.3163 12.5752 12.8536 13.2677 13.4893C14.4356 14.5589 15.567 15.6575 16.6618 16.7851L16.6921 20.8831L11.16 20.7658C10.9961 17.7891 11.073 15.0874 11.3909 12.6606Z" fill="#FDB90F"/>
<path d="M49.9904 18.8284C50.0005 25.7378 50.003 32.6447 49.998 39.549C49.9955 44.4984 47.7062 47.8206 43.1302 49.5158L43.0886 49.0769C43.076 48.9407 43.0028 48.8587 42.8691 48.8309C42.6295 48.7805 42.5324 48.6153 42.5778 48.3353C42.5847 48.2885 42.5801 48.2406 42.5642 48.1958C42.5484 48.151 42.5219 48.1105 42.4869 48.0779C41.6848 47.3477 40.6555 46.6325 40.508 45.4671C40.5055 45.4317 40.4853 45.4141 40.4474 45.4141C40.4146 45.4141 40.3806 45.4141 40.3453 45.4141C40.2645 45.4116 40.2191 45.3699 40.209 45.2892L40.0955 44.5173C40.0829 44.424 40.1233 44.3773 40.2166 44.3773C40.3856 44.3798 40.5282 44.3508 40.6442 44.2903C43.7167 43.874 44.3032 41.8686 44.3562 38.9663C44.447 33.6411 44.4546 28.3172 44.3789 22.9945L44.5113 20.1717C44.5164 20.0582 44.5555 20.0443 44.6286 20.1301C44.7346 20.2587 44.8658 20.2978 45.0222 20.2474C45.0889 20.2251 45.1599 20.2225 45.2265 20.2398C46.8498 20.6598 48.212 20.3874 49.4683 20.7847C49.5119 20.7977 49.5502 20.825 49.5775 20.8625C49.6047 20.9 49.6195 20.9457 49.6196 20.9928V21.1858C49.6196 21.2917 49.6713 21.3308 49.7747 21.3031C49.8176 21.2905 49.8593 21.2766 49.8996 21.2614C49.9148 21.2564 49.9223 21.2451 49.9223 21.2274L49.9904 18.8284Z" fill="#8C70FD"/>
<path d="M11.16 20.7658L16.6921 20.8831L16.6997 25.2156C15.3072 25.5183 14.5239 26.3886 13.2866 26.7935C13.1706 26.8314 13.0507 26.8503 12.9271 26.8503L11.126 26.8389L11.16 20.7658Z" fill="#FD764E"/>
<path d="M0.0694314 21.1933L0.277545 22.0561C0.312862 22.1999 0.39737 22.2402 0.531067 22.1772C1.09361 21.9123 1.62083 21.9842 2.11274 22.3928C2.16873 22.4391 2.23873 22.4634 2.3095 22.4609L3.87604 22.442C4.00973 22.4395 4.12199 22.3878 4.2128 22.2869C4.43731 22.0296 4.7148 21.9653 5.04526 22.0939C5.15373 22.1343 5.2004 22.2125 5.18526 22.3285C5.03139 23.5066 5.17644 24.0477 5.62041 23.9518L5.62798 33.9564C3.96307 34.7094 2.41167 36.0489 0.546203 36.1208C0.420073 36.1259 0.344394 36.0666 0.319168 35.943C0.22331 35.4889 0.137541 35.3527 0.0618631 35.5343L0.0694314 21.1933Z" fill="#FD764E"/>
<path d="M38.7074 22.1683L22.3233 22.2542C22.2439 22.2546 22.1799 22.3193 22.1803 22.3987L22.2077 27.6355C22.2081 27.715 22.2728 27.779 22.3522 27.7786L38.7363 27.6928C38.8157 27.6923 38.8798 27.6277 38.8793 27.5482L38.8519 22.3114C38.8515 22.232 38.7868 22.1679 38.7074 22.1683Z" fill="#8C70FD"/>
<path d="M16.6997 25.2156L16.7072 33.0105C16.7072 33.1391 16.7716 33.2047 16.9002 33.2072L17.2029 33.2186C17.5435 33.4027 17.6116 33.7445 17.4073 34.244C16.8548 35.6024 16.4651 37.0592 16.0488 38.482C16.0135 38.6005 15.9353 38.6687 15.8142 38.6863L15.2996 38.7658C11.5384 39.2652 11.1184 37.2257 11.1184 34.051C11.1159 31.5612 11.1184 29.1572 11.126 26.8389L12.9271 26.8503C13.0507 26.8503 13.1706 26.8314 13.2866 26.7935C14.5239 26.3886 15.3072 25.5183 16.6997 25.2156Z" fill="#FB4D78"/>
<path d="M17.2029 33.2186L25.8794 33.2224C25.7911 33.2955 25.6423 33.346 25.4329 33.3737C25.4289 33.3737 25.425 33.3753 25.4222 33.3781C25.4194 33.381 25.4178 33.3848 25.4178 33.3889C25.4178 33.3929 25.4194 33.3967 25.4222 33.3996C25.425 33.4024 25.4289 33.404 25.4329 33.404C25.5111 33.404 25.5956 33.4015 25.6864 33.3964C25.8302 33.3889 25.8554 33.4406 25.7621 33.5516C25.641 33.6953 25.6436 33.8492 25.7697 34.0132C25.8479 34.1166 25.8958 34.2327 25.9135 34.3613C26.0724 35.5595 26.4319 36.6922 26.9919 37.7593C26.9994 37.7744 26.9982 37.7908 26.9881 37.8084L26.9238 37.922C26.9163 37.934 26.9123 37.9479 26.912 37.962C26.9117 37.9762 26.9153 37.9902 26.9222 38.0025C26.9291 38.0149 26.9393 38.0252 26.9515 38.0323C26.9638 38.0394 26.9777 38.0431 26.9919 38.043C27.784 38.0607 28.064 38.3067 27.8319 38.7809L15.2996 38.7658L15.8142 38.6863C15.9353 38.6687 16.0135 38.6005 16.0488 38.482C16.4651 37.0592 16.8548 35.6024 17.4073 34.244C17.6116 33.7445 17.5435 33.4027 17.2029 33.2186Z" fill="#D44EB3"/>
<path d="M25.8794 33.2224L38.7068 33.2299C38.7247 33.2299 38.7424 33.2335 38.759 33.2403C38.7755 33.2471 38.7905 33.2572 38.8032 33.2698C38.8158 33.2825 38.8258 33.2975 38.8327 33.314C38.8395 33.3305 38.8431 33.3483 38.8431 33.3661L38.8885 38.6371C38.891 38.7355 38.8431 38.7847 38.7447 38.7847L27.8319 38.7809C28.064 38.3067 27.784 38.0607 26.9919 38.043C26.9777 38.0431 26.9638 38.0394 26.9515 38.0323C26.9393 38.0252 26.9291 38.0149 26.9222 38.0025C26.9153 37.9902 26.9117 37.9762 26.912 37.962C26.9123 37.9479 26.9163 37.934 26.9238 37.922L26.9881 37.8084C26.9982 37.7908 26.9994 37.7744 26.9919 37.7593C26.4319 36.6922 26.0724 35.5595 25.9135 34.3613C25.8958 34.2327 25.8479 34.1166 25.7697 34.0132C25.6436 33.8492 25.641 33.6953 25.7621 33.5516C25.8554 33.4406 25.8302 33.3889 25.6864 33.3964C25.5956 33.4015 25.5111 33.404 25.4329 33.404C25.4289 33.404 25.425 33.4024 25.4222 33.3996C25.4194 33.3967 25.4178 33.3929 25.4178 33.3889C25.4178 33.3848 25.4194 33.381 25.4222 33.3781C25.425 33.3753 25.4289 33.3737 25.4329 33.3737C25.6423 33.346 25.7911 33.2955 25.8794 33.2224Z" fill="#A158F5"/>
<path d="M5.62798 33.9564C5.63303 35.7197 5.63429 37.4742 5.63176 39.2198C5.62798 44.9752 9.22269 44.2638 13.5969 44.2827C14.5454 44.7519 15.6112 44.9424 16.7943 44.8541C16.8203 44.8511 16.8466 44.8573 16.8686 44.8715C16.8906 44.8858 16.9071 44.9072 16.9151 44.9321C16.9231 44.9571 16.9222 44.9841 16.9126 45.0085C16.903 45.0329 16.8853 45.0532 16.8624 45.066L16.4197 45.3498C16.3364 45.4002 16.2456 45.4267 16.1472 45.4292L15.1294 45.433C15.0007 45.4355 14.9629 45.4948 15.0158 45.6109C15.5052 46.6678 15.6086 47.6352 15.3261 48.5131C15.1369 49.1009 15.1029 49.5776 15.224 49.9434C12.3406 49.9888 8.92754 50.2121 6.4226 49.2926C3.45602 48.2053 1.48587 46.1305 0.512148 43.0681C-0.191657 40.8469 0.0353758 38.0279 0.0618631 35.5343C0.137541 35.3527 0.22331 35.4889 0.319168 35.943C0.344394 36.0666 0.420073 36.1259 0.546203 36.1208C2.41167 36.0489 3.96307 34.7094 5.62798 33.9564Z" fill="#FB4D78"/>
<path d="M13.5969 44.2827L20.6766 44.2865L19.2046 44.3735C19.1895 44.376 19.1819 44.3823 19.1819 44.3924C19.1819 44.4 19.1819 44.4076 19.1819 44.4151C19.1844 44.4505 19.2084 44.4681 19.2538 44.4681H21.789C21.7999 44.4668 21.8109 44.4695 21.8199 44.4757C21.829 44.4819 21.8355 44.4911 21.8382 44.5017C21.841 44.5123 21.8398 44.5236 21.835 44.5334C21.8301 44.5432 21.8218 44.5509 21.8117 44.5551L21.6869 44.627C21.644 44.6548 21.6452 44.6787 21.6906 44.6989C21.9076 44.8024 22.0097 44.9815 21.9971 45.2362C21.9404 46.4736 22.2128 47.7715 22.1788 49.0466C22.1737 49.1652 22.1296 49.2674 22.0463 49.3531C21.9883 49.4111 21.9492 49.4868 21.929 49.5802C21.9063 49.7139 21.9606 49.787 22.0917 49.7996L23.6091 49.9396L15.224 49.9434C15.1029 49.5776 15.1369 49.1009 15.3261 48.5131C15.6086 47.6352 15.5052 46.6678 15.0158 45.6109C14.9629 45.4948 15.0007 45.4355 15.1294 45.433L16.1472 45.4292C16.2456 45.4267 16.3364 45.4002 16.4197 45.3498L16.8624 45.066C16.8853 45.0532 16.903 45.0329 16.9126 45.0085C16.9222 44.9841 16.9231 44.9571 16.9151 44.9321C16.9071 44.9072 16.8906 44.8858 16.8686 44.8715C16.8466 44.8573 16.8203 44.8511 16.7943 44.8541C15.6112 44.9424 14.5454 44.7519 13.5969 44.2827Z" fill="#D44EB3"/>
<path d="M20.6766 44.2865L40.6442 44.2903C40.5282 44.3508 40.3856 44.3798 40.2166 44.3773C40.1233 44.3773 40.0829 44.424 40.0955 44.5173L40.209 45.2892C40.2191 45.3699 40.2645 45.4116 40.3453 45.4141C40.3806 45.4141 40.4146 45.4141 40.4474 45.4141C40.4853 45.4141 40.5055 45.4317 40.508 45.4671C40.6555 46.6325 41.6848 47.3477 42.4869 48.0779C42.5219 48.1105 42.5484 48.151 42.5642 48.1958C42.5801 48.2406 42.5847 48.2885 42.5778 48.3353C42.5324 48.6153 42.6295 48.7805 42.8691 48.8309C43.0028 48.8587 43.076 48.9407 43.0886 49.0769L43.1302 49.5158C42.0556 49.7832 41.0894 49.922 40.2317 49.9321C36.3192 49.9749 30.7783 49.9775 23.6091 49.9396L22.0917 49.7996C21.9606 49.787 21.9063 49.7139 21.929 49.5802C21.9492 49.4868 21.9883 49.4111 22.0463 49.3531C22.1296 49.2674 22.1737 49.1652 22.1788 49.0466C22.2128 47.7715 21.9404 46.4736 21.9971 45.2362C22.0097 44.9815 21.9076 44.8024 21.6906 44.6989C21.6452 44.6787 21.644 44.6548 21.6869 44.627L21.8117 44.5551C21.8218 44.5509 21.8301 44.5432 21.835 44.5334C21.8398 44.5236 21.841 44.5123 21.8382 44.5017C21.8355 44.4911 21.829 44.4819 21.8199 44.4757C21.8109 44.4695 21.7999 44.4668 21.789 44.4681H19.2538C19.2084 44.4681 19.1844 44.4505 19.1819 44.4151C19.1819 44.4076 19.1819 44.4 19.1819 44.3924C19.1819 44.3823 19.1895 44.376 19.2046 44.3735L20.6766 44.2865Z" fill="#B653DA"/>
</svg>
