<svg width="31" height="50" viewBox="0 0 31 50" fill="none" xmlns="http://www.w3.org/2000/svg">
<path d="M15.4247 0.0843821L15.359 18.3932L14.7454 18.5758L0.129023 25.1317C5.13751 16.7363 10.0632 8.50653 14.9061 0.442305C15.1593 0.0186412 15.3322 -0.100666 15.4247 0.0843821Z" fill="#8A92B2"/>
<path d="M15.4247 0.0843821L30.41 24.9125C30.1982 25.0197 30.046 25.0525 29.9535 25.0111C25.0862 22.7857 20.2214 20.5797 15.359 18.3932L15.4247 0.0843821Z" fill="#62688F"/>
<path d="M15.359 18.3932C20.2214 20.5797 25.0862 22.7857 29.9535 25.0111C30.046 25.0525 30.1982 25.0197 30.41 24.9125C30.5366 25.0318 30.6024 25.1487 30.6072 25.2632C30.6121 25.3995 30.5549 25.503 30.4356 25.5736L15.348 34.4998L15.3225 18.8571C15.3225 18.7402 15.264 18.6708 15.1472 18.6489L14.7454 18.5758L15.359 18.3932Z" fill="#454A75"/>
<path d="M14.7454 18.5758L15.1472 18.6489C15.264 18.6708 15.3225 18.7402 15.3225 18.8571L15.348 34.4998L0.150936 25.5444C0.0413675 25.4811 -0.00854682 25.3861 0.00119258 25.2595C0.00849713 25.1913 0.0511078 25.1487 0.129023 25.1317L14.7454 18.5758Z" fill="#62688F"/>
<path d="M15.3042 37.4325L15.2933 49.0869C15.2933 49.1989 15.3176 49.3048 15.3663 49.4047C15.4467 49.5629 15.4357 49.7614 15.3334 50L0.202068 28.6744C0.0584117 28.4699 0.0937174 28.4309 0.307984 28.5575L15.3042 37.4325Z" fill="#8A92B2"/>
<path d="M15.3334 50C15.4357 49.7614 15.4467 49.5629 15.3663 49.4047C15.3176 49.3048 15.2933 49.1989 15.2933 49.0869L15.3042 37.4325L30.4319 28.5027C30.4464 28.4948 30.4631 28.492 30.4793 28.4948C30.4956 28.4976 30.5104 28.5058 30.5214 28.518C30.5324 28.5303 30.5389 28.5459 30.5399 28.5624C30.5409 28.5788 30.5363 28.5951 30.5269 28.6086L15.3334 50Z" fill="#62688F"/>
</svg>
