<svg width="31" height="50" viewBox="0 0 31 50" fill="none" xmlns="http://www.w3.org/2000/svg">
<path d="M3.92705 13.4191C8.25942 9.02325 13.3562 3.79705 16.9376 0.238842C17.0613 0.116735 17.24 0.0377719 17.4736 0.0019537C17.5144 -0.0045587 17.5506 0.0052101 17.5823 0.0312597C17.9425 0.334086 17.9987 0.822516 18.0073 1.2621C18.0683 4.55575 18.1005 7.8498 18.1037 11.1443C18.1037 12.1297 17.9303 12.8672 17.2539 13.5595C14.679 16.1938 12.1099 18.8346 9.54644 21.4819C8.79426 22.2585 8.27408 23.7287 8.91881 24.686C9.70151 25.8484 10.715 26.2282 12.1119 26.2257C13.5886 26.2233 15.0641 26.2229 16.5383 26.2245C17.923 26.227 17.3222 27.4737 16.7715 28.0268C13.0554 31.7527 9.33275 35.4717 5.60359 39.1838C4.65196 40.1305 3.55788 40.3503 2.32134 39.8432C0.709522 39.1826 0.00862415 37.7222 0.006182 36.0163C-0.00114445 29.5235 -0.00195902 25.0181 0.00373933 22.5002C0.00536743 21.884 0.04892 21.2193 0.134395 20.5062C0.462864 17.7686 2.02828 15.346 3.92705 13.4191Z" fill="#FF6100"/>
<path d="M13.4966 49.4103C13.2341 49.6667 12.6541 50.3591 12.3012 49.7668C12.1074 49.4412 12.0098 49.1058 12.0081 48.7607C11.9975 45.7975 11.9532 42.8348 11.875 39.8725C11.8604 39.3315 11.9544 38.8297 11.9837 38.3046C12.035 37.3888 12.3854 36.9016 13.0729 36.2239C15.6404 33.6898 18.1949 31.143 20.7364 28.5836C21.6192 27.6959 22.1321 26.2685 21.331 25.2037C20.4103 23.9802 19.4017 23.7897 17.8033 23.7641C16.0849 23.7372 14.7405 23.7343 13.7701 23.7555C13.3379 23.7653 12.6199 23.7702 12.6883 23.1047C12.7493 22.499 13.1877 22.1583 13.6126 21.7444C19.2711 16.2227 22.9546 12.6368 24.6633 10.9867C26.186 9.51534 28.0213 9.58861 29.5122 11.0344C30.3633 11.8586 30.5196 12.7475 30.5269 13.899C30.5546 18.5977 30.5725 23.2964 30.5807 27.9951C30.5839 30.1336 29.997 32.0869 28.8199 33.855C28.1287 34.8917 27.4181 35.7428 26.4656 36.683C22.154 40.9348 17.829 45.1609 13.4966 49.4103Z" fill="#FF6100"/>
</svg>
