<svg width="17" height="16" viewBox="0 0 17 16" fill="none" xmlns="http://www.w3.org/2000/svg">
    <path d="M12.9637 7.70043C13.159 7.89569 13.159 8.21228 12.9637 8.40754L8.03727 13.334L3.11208 8.40879C2.91633 8.21304 2.91689 7.89549 3.11333 7.70043L3.35039 7.46504C3.54585 7.27096 3.86147 7.27152 4.05624 7.46629L6.51705 9.9271C6.83204 10.2421 7.3706 10.019 7.3706 9.57354V1.83399C7.3706 1.55784 7.59446 1.33398 7.8706 1.33398H8.20394C8.48008 1.33398 8.70394 1.55784 8.70394 1.83398V9.57199C8.70394 10.0177 9.24296 10.2406 9.55781 9.92522L12.0171 7.46151C12.2123 7.26595 12.5291 7.2658 12.7245 7.46119L12.9637 7.70043ZM8.03727 13.334H1.8706C1.59446 13.334 1.37061 13.5578 1.37061 13.834V14.1673C1.37061 14.4435 1.59446 14.6673 1.87061 14.6673H14.2039C14.4801 14.6673 14.7039 14.4435 14.7039 14.1673V13.834C14.7039 13.5578 14.4801 13.334 14.2039 13.334H8.03727Z"
          fill="white"/>
</svg>
