<svg width="10" height="10" viewBox="0 0 10 10" fill="none" xmlns="http://www.w3.org/2000/svg">
    <path
        d="M4.33301 5.78402H0.999674C0.810786 5.78402 0.652563 5.72002 0.525008 5.59202C0.397452 5.46402 0.333452 5.30579 0.333008 5.11735C0.333008 4.92846 0.397008 4.77024 0.525008 4.64268C0.653008 4.51513 0.81123 4.45113 0.999674 4.45068H4.33301V1.11735C4.33301 0.928461 4.39701 0.770239 4.52501 0.642684C4.65301 0.515128 4.81123 0.451128 4.99967 0.450684C5.18856 0.450684 5.34701 0.514684 5.47501 0.642684C5.60301 0.770684 5.66679 0.928906 5.66634 1.11735V4.45068H8.99967C9.18856 4.45068 9.34701 4.51468 9.47501 4.64268C9.60301 4.77068 9.66679 4.92891 9.66634 5.11735C9.66634 5.30624 9.60234 5.46468 9.47434 5.59268C9.34634 5.72068 9.18812 5.78446 8.99967 5.78402H5.66634V9.11735C5.66634 9.30624 5.60234 9.46468 5.47434 9.59268C5.34634 9.72068 5.18812 9.78446 4.99967 9.78402C4.81079 9.78402 4.65256 9.72002 4.52501 9.59202C4.39745 9.46402 4.33345 9.30579 4.33301 9.11735V5.78402Z"
        fill="white" />
</svg>