<svg width="16" height="12" viewBox="0 0 16 12" fill="none" xmlns="http://www.w3.org/2000/svg">
    <path d="M12.15 7.00001H1C0.716667 7.00001 0.479167 6.90418 0.2875 6.71251C0.0958333 6.52085 0 6.28335 0 6.00001C0 5.71668 0.0958333 5.47918 0.2875 5.28751C0.479167 5.09585 0.716667 5.00001 1 5.00001H12.15L9.3 2.15001C9.1 1.95001 9.00417 1.71668 9.0125 1.45001C9.02083 1.18335 9.11667 0.950012 9.3 0.750012C9.5 0.550012 9.7375 0.445845 10.0125 0.437512C10.2875 0.429178 10.525 0.525012 10.725 0.725012L15.3 5.30001C15.4 5.40001 15.4708 5.50835 15.5125 5.62501C15.5542 5.74168 15.575 5.86668 15.575 6.00001C15.575 6.13335 15.5542 6.25835 15.5125 6.37501C15.4708 6.49168 15.4 6.60001 15.3 6.70001L10.725 11.275C10.525 11.475 10.2875 11.5708 10.0125 11.5625C9.7375 11.5542 9.5 11.45 9.3 11.25C9.11667 11.05 9.02083 10.8167 9.0125 10.55C9.00417 10.2833 9.1 10.05 9.3 9.85001L12.15 7.00001Z" fill="#C4C4C4"/>
</svg>
