<svg width="16" height="17" viewBox="0 0 16 17" fill="none" xmlns="http://www.w3.org/2000/svg">
<path d="M6.95198 3.99279L1.78168 9.02649C1.57065 9.23195 1.32445 9.33057 1.04307 9.32235C0.761692 9.31413 0.515487 9.20695 0.304454 9.00081C0.111008 8.79535 0.00971265 8.55565 0.000567908 8.28171C-0.00857683 8.00776 0.0927184 7.76806 0.304454 7.56261L7.26853 0.782519C7.37404 0.67979 7.48835 0.607196 7.61146 0.564735C7.73456 0.522273 7.86645 0.500701 8.00714 0.500016C8.14783 0.499331 8.27973 0.520904 8.40283 0.564735C8.52593 0.608565 8.64024 0.68116 8.74576 0.782519L15.7098 7.56261C15.9033 7.75094 16 7.98653 16 8.26938C16 8.55223 15.9033 8.79603 15.7098 9.00081C15.4988 9.20626 15.2484 9.30899 14.9586 9.30899C14.6687 9.30899 14.418 9.20626 14.2062 9.00081L9.0623 3.99279V15.4727C9.0623 15.7638 8.96101 16.0079 8.75842 16.2052C8.55583 16.4024 8.3054 16.5007 8.00714 16.5C7.70888 16.4993 7.45846 16.4007 7.25587 16.2041C7.05328 16.0076 6.95198 15.7638 6.95198 15.4727V3.99279Z" fill="white"/>
</svg>
