<svg width="12" height="12" viewBox="0 0 12 12" fill="none" xmlns="http://www.w3.org/2000/svg">
    <path d="M1.5 12C1.0875 12 0.734375 11.8491 0.440625 11.5474C0.146875 11.2456 0 10.8828 0 10.4591V8.91814C0 8.69984 0.071875 8.51685 0.215625 8.36918C0.359375 8.22151 0.5375 8.14767 0.75 8.14767C0.9625 8.14767 1.14063 8.22151 1.28438 8.36918C1.42813 8.51685 1.5 8.69984 1.5 8.91814V10.4591H10.5V8.91814C10.5 8.69984 10.5719 8.51685 10.7156 8.36918C10.8594 8.22151 11.0375 8.14767 11.25 8.14767C11.4625 8.14767 11.6406 8.22151 11.7844 8.36918C11.9281 8.51685 12 8.69984 12 8.91814V10.4591C12 10.8828 11.8531 11.2456 11.5594 11.5474C11.2656 11.8491 10.9125 12 10.5 12H1.5ZM5.25 2.63884L3.84375 4.08347C3.69375 4.23756 3.51562 4.3114 3.30938 4.30498C3.10313 4.29856 2.925 4.2183 2.775 4.06421C2.6375 3.91011 2.56562 3.73034 2.55938 3.52488C2.55313 3.31942 2.625 3.13965 2.775 2.98555L5.475 0.211878C5.55 0.134831 5.63125 0.0802568 5.71875 0.0481541C5.80625 0.0160514 5.9 0 6 0C6.1 0 6.19375 0.0160514 6.28125 0.0481541C6.36875 0.0802568 6.45 0.134831 6.525 0.211878L9.225 2.98555C9.375 3.13965 9.44688 3.31942 9.44063 3.52488C9.43437 3.73034 9.3625 3.91011 9.225 4.06421C9.075 4.2183 8.89688 4.29856 8.69063 4.30498C8.48438 4.3114 8.30625 4.23756 8.15625 4.08347L6.75 2.63884V8.14767C6.75 8.36597 6.67813 8.54896 6.53438 8.69663C6.39062 8.8443 6.2125 8.91814 6 8.91814C5.7875 8.91814 5.60938 8.8443 5.46563 8.69663C5.32188 8.54896 5.25 8.36597 5.25 8.14767V2.63884Z" fill="#C4C4C4"/>
</svg>
