<svg viewBox="0 0 1213 1224" fill="none" xmlns="http://www.w3.org/2000/svg">
<g filter="url(#filter0_f_1_179)">
<path fill-rule="evenodd" clip-rule="evenodd" d="M590.62 334.246C625.362 337.474 660.38 313.296 693.678 324.295C727.193 335.367 748.382 369.185 773.869 394.781C800.945 421.973 828.154 448.051 849.321 480.607C874.727 519.682 923.906 560.034 910.827 605.423C896.411 655.452 814.079 646.141 788.696 690.998C763.949 734.733 801.139 797.681 777.056 841.831C753.601 884.831 708.447 925.585 661.625 923.953C610.961 922.186 586.057 849.775 537.749 833.487C495.666 819.298 446.053 859.457 406.788 838.03C368.625 817.205 356.221 765.604 337.918 724.44C320.52 685.311 292.631 644.075 301.807 601.924C311.562 557.116 360.93 536.39 386.879 499.542C404.838 474.04 418.019 446.244 431.475 417.794C449.172 380.377 443.815 322.937 479.193 304.364C513.906 286.14 552.033 330.66 590.62 334.246Z" fill="#4C5B68" fill-opacity="0.46"/>
</g>
<defs>
<filter id="filter0_f_1_179" x="0" y="0" width="1213" height="1224" filterUnits="userSpaceOnUse" color-interpolation-filters="sRGB">
<feFlood flood-opacity="0" result="BackgroundImageFix"/>
<feBlend mode="normal" in="SourceGraphic" in2="BackgroundImageFix" result="shape"/>
<feGaussianBlur stdDeviation="150" result="effect1_foregroundBlur_1_179"/>
</filter>
</defs>
</svg>
