<svg width="234" height="174" viewBox="0 0 234 174" fill="none" xmlns="http://www.w3.org/2000/svg">
<circle cx="111.891" cy="82.8912" r="72" transform="rotate(98.9445 111.891 82.8912)" fill="url(#paint0_linear_763_3303)" stroke="url(#paint1_linear_763_3303)"/>
<path d="M198.286 138.599C196.707 141.346 192.936 142.821 187.168 142.935C181.437 143.049 173.91 141.813 165.095 139.35C147.472 134.427 124.815 124.634 101.309 111.132C77.803 97.6295 57.9291 82.9908 44.7984 70.2484C38.2302 63.8744 33.3703 57.995 30.5812 52.9868C27.7744 47.9468 27.1478 43.946 28.7259 41.1988C30.304 38.4516 34.0756 36.9773 39.8433 36.8627C45.5747 36.7489 53.1019 37.985 61.9168 40.4476C79.5392 45.3707 102.197 55.1635 125.703 68.6659C149.208 82.1684 169.082 96.807 182.213 109.549C188.781 115.923 193.641 121.803 196.43 126.811C199.237 131.851 199.864 135.852 198.286 138.599Z" stroke="url(#paint2_linear_763_3303)"/>
<path d="M210.64 145.178C208.863 148.272 204.625 149.918 198.185 150.046C191.781 150.173 183.375 148.792 173.536 146.043C153.864 140.547 128.575 129.617 102.341 114.548C76.1075 99.478 53.9252 83.1395 39.2678 68.9155C31.9363 61.8008 26.5084 55.2352 23.392 49.6392C20.2579 44.0116 19.5447 39.5216 21.322 36.4276C23.0993 33.3335 27.3372 31.6876 33.7774 31.5597C40.1814 31.4325 48.5874 32.8135 58.4269 35.5623C78.0982 41.0578 103.387 51.9881 129.621 67.0577C155.855 82.1273 178.037 98.4658 192.695 112.69C200.026 119.805 205.454 126.37 208.57 131.966C211.704 137.594 212.418 142.084 210.64 145.178Z" stroke="url(#paint3_linear_763_3303)"/>
<path d="M218.183 147.285C216.273 150.61 211.725 152.37 204.837 152.507C197.985 152.643 188.993 151.166 178.471 148.226C157.435 142.35 130.393 130.661 102.342 114.548C74.2907 98.4343 50.5707 80.9634 34.8963 65.7524C27.0562 58.1443 21.25 51.1215 17.9156 45.1341C14.5635 39.1149 13.7926 34.299 15.7026 30.974C17.6126 27.6489 22.1611 25.8886 29.0493 25.7518C35.9013 25.6158 44.8928 27.0933 55.4147 30.0328C76.451 35.9095 103.493 47.5977 131.544 63.7112C159.595 79.8247 183.315 97.2957 198.99 112.507C206.83 120.115 212.636 127.138 215.97 133.125C219.323 139.144 220.093 143.96 218.183 147.285Z" stroke="url(#paint4_linear_763_3303)"/>
<defs>
<linearGradient id="paint0_linear_763_3303" x1="76.5506" y1="16.3763" x2="112.413" y2="86.6551" gradientUnits="userSpaceOnUse">
<stop stop-color="#86A568"/>
<stop offset="1" stop-color="#485763"/>
</linearGradient>
<linearGradient id="paint1_linear_763_3303" x1="86.0677" y1="9.31065" x2="135.906" y2="152.301" gradientUnits="userSpaceOnUse">
<stop offset="0.00701634" stop-color="#CDE768"/>
<stop offset="1" stop-color="#7DFE82" stop-opacity="0.1"/>
</linearGradient>
<linearGradient id="paint2_linear_763_3303" x1="125.952" y1="68.2324" x2="105.499" y2="99.5" gradientUnits="userSpaceOnUse">
<stop stop-color="#8F9E8D"/>
<stop offset="1" stop-color="white" stop-opacity="0"/>
</linearGradient>
<linearGradient id="paint3_linear_763_3303" x1="129.87" y1="66.6241" x2="107.046" y2="101.517" gradientUnits="userSpaceOnUse">
<stop stop-color="#8F9E8D"/>
<stop offset="1" stop-color="white" stop-opacity="0"/>
</linearGradient>
<linearGradient id="paint4_linear_763_3303" x1="131.793" y1="63.2776" x2="107.39" y2="100.585" gradientUnits="userSpaceOnUse">
<stop stop-color="#8F9E8D"/>
<stop offset="1" stop-color="white" stop-opacity="0"/>
</linearGradient>
</defs>
</svg>
