<svg width="9" height="10" viewBox="0 0 9 10" fill="none" xmlns="http://www.w3.org/2000/svg">
    <g clip-path="url(#clip0_435_1541)">
        <path d="M4.4775 7.24565C4.635 7.24565 4.76813 7.19128 4.87688 7.08253C4.98563 6.97378 5.04 6.84065 5.04 6.68315C5.04 6.52565 4.98563 6.39253 4.87688 6.28378C4.76813 6.17503 4.635 6.12065 4.4775 6.12065C4.32 6.12065 4.18688 6.17503 4.07812 6.28378C3.96938 6.39253 3.915 6.52565 3.915 6.68315C3.915 6.84065 3.96938 6.97378 4.07812 7.08253C4.18688 7.19128 4.32 7.24565 4.4775 7.24565ZM4.0725 5.51315H4.905C4.905 5.26565 4.93313 5.07065 4.98938 4.92815C5.04563 4.78565 5.205 4.59065 5.4675 4.34315C5.6625 4.14815 5.81625 3.96253 5.92875 3.78628C6.04125 3.61003 6.0975 3.39815 6.0975 3.15065C6.0975 2.73065 5.94375 2.40815 5.63625 2.18315C5.32875 1.95815 4.965 1.84565 4.545 1.84565C4.1175 1.84565 3.77063 1.95815 3.50438 2.18315C3.23813 2.40815 3.0525 2.67815 2.9475 2.99315L3.69 3.28565C3.7275 3.15065 3.81188 3.0044 3.94313 2.8469C4.07438 2.6894 4.275 2.61065 4.545 2.61065C4.785 2.61065 4.965 2.67628 5.085 2.80753C5.205 2.93878 5.265 3.08315 5.265 3.24065C5.265 3.39065 5.22 3.53128 5.13 3.66253C5.04 3.79378 4.9275 3.91565 4.7925 4.02815C4.4625 4.32065 4.26 4.5419 4.185 4.6919C4.11 4.8419 4.0725 5.11565 4.0725 5.51315ZM4.5 9.04565C3.8775 9.04565 3.2925 8.92753 2.745 8.69128C2.1975 8.45503 1.72125 8.1344 1.31625 7.7294C0.91125 7.3244 0.590625 6.84815 0.354375 6.30065C0.118125 5.75315 0 5.16815 0 4.54565C0 3.92315 0.118125 3.33815 0.354375 2.79065C0.590625 2.24315 0.91125 1.7669 1.31625 1.3619C1.72125 0.956904 2.1975 0.636279 2.745 0.400029C3.2925 0.163779 3.8775 0.0456543 4.5 0.0456543C5.1225 0.0456543 5.7075 0.163779 6.255 0.400029C6.8025 0.636279 7.27875 0.956904 7.68375 1.3619C8.08875 1.7669 8.40938 2.24315 8.64563 2.79065C8.88188 3.33815 9 3.92315 9 4.54565C9 5.16815 8.88188 5.75315 8.64563 6.30065C8.40938 6.84815 8.08875 7.3244 7.68375 7.7294C7.27875 8.1344 6.8025 8.45503 6.255 8.69128C5.7075 8.92753 5.1225 9.04565 4.5 9.04565ZM4.5 8.14565C5.505 8.14565 6.35625 7.7969 7.05375 7.0994C7.75125 6.4019 8.1 5.55065 8.1 4.54565C8.1 3.54065 7.75125 2.6894 7.05375 1.9919C6.35625 1.2944 5.505 0.945654 4.5 0.945654C3.495 0.945654 2.64375 1.2944 1.94625 1.9919C1.24875 2.6894 0.9 3.54065 0.9 4.54565C0.9 5.55065 1.24875 6.4019 1.94625 7.0994C2.64375 7.7969 3.495 8.14565 4.5 8.14565Z" fill="white" fill-opacity="0.6"/>
    </g>
    <defs>
        <clipPath id="clip0_435_1541">
            <rect width="9" height="9" fill="white" transform="translate(0 0.0456543)"/>
        </clipPath>
    </defs>
</svg>
