<svg width="17" height="18" viewBox="0 0 17 18" fill="none" xmlns="http://www.w3.org/2000/svg">
<path d="M8.49984 17.3327C7.34706 17.3327 6.26373 17.1138 5.24984 16.676C4.23595 16.2382 3.354 15.6446 2.604 14.8952C1.854 14.1452 1.26039 13.2632 0.823171 12.2493C0.385948 11.2355 0.167059 10.1521 0.166504 8.99935C0.166504 7.84657 0.385393 6.76324 0.823171 5.74935C1.26095 4.73546 1.85456 3.85352 2.604 3.10352C3.354 2.35352 4.23595 1.7599 5.24984 1.32268C6.26373 0.88546 7.34706 0.666571 8.49984 0.666016C9.65261 0.666016 10.7359 0.884905 11.7498 1.32268C12.7637 1.76046 13.6457 2.35407 14.3957 3.10352C15.1457 3.85352 15.7396 4.73546 16.1773 5.74935C16.6151 6.76324 16.8337 7.84657 16.8332 8.99935C16.8332 10.1521 16.6143 11.2355 16.1765 12.2493C15.7387 13.2632 15.1451 14.1452 14.3957 14.8952C13.6457 15.6452 12.7637 16.2391 11.7498 16.6768C10.7359 17.1146 9.65261 17.3332 8.49984 17.3327ZM6.08317 15.2077L7.08317 12.916C6.49984 12.7077 5.9965 12.3849 5.57317 11.9477C5.14984 11.5105 4.81984 10.9999 4.58317 10.416L2.2915 11.3743C2.61095 12.2632 3.104 13.041 3.77067 13.7077C4.43734 14.3743 5.20817 14.8743 6.08317 15.2077ZM4.58317 7.58268C4.81928 6.99935 5.14928 6.48907 5.57317 6.05185C5.99706 5.61463 6.50039 5.29157 7.08317 5.08268L6.12484 2.79102C5.23595 3.12435 4.45817 3.62435 3.7915 4.29102C3.12484 4.95768 2.62484 5.73546 2.2915 6.62435L4.58317 7.58268ZM8.49984 11.4993C9.19428 11.4993 9.78456 11.2563 10.2707 10.7702C10.7568 10.2841 10.9998 9.69379 10.9998 8.99935C10.9998 8.3049 10.7568 7.71463 10.2707 7.22852C9.78456 6.7424 9.19428 6.49935 8.49984 6.49935C7.80539 6.49935 7.21512 6.7424 6.729 7.22852C6.24289 7.71463 5.99984 8.3049 5.99984 8.99935C5.99984 9.69379 6.24289 10.2841 6.729 10.7702C7.21512 11.2563 7.80539 11.4993 8.49984 11.4993ZM10.9165 15.2077C11.7915 14.8743 12.559 14.378 13.219 13.7185C13.879 13.0591 14.3754 12.2916 14.7082 11.416L12.4165 10.416C12.2082 10.9993 11.8887 11.503 11.4582 11.9268C11.0276 12.3507 10.5276 12.6805 9.95817 12.916L10.9165 15.2077ZM12.4165 7.54102L14.7082 6.58268C14.3748 5.70768 13.8784 4.94046 13.219 4.28102C12.5596 3.62157 11.7921 3.1249 10.9165 2.79102L9.95817 5.12435C10.5276 5.33268 11.0207 5.64879 11.4373 6.07268C11.854 6.49657 12.1804 6.98602 12.4165 7.54102Z" fill="white"/>
</svg>
