<svg id="logo" width="41" height="43" viewBox="0 0 41 43" fill="none" xmlns="http://www.w3.org/2000/svg">
    <path fill-rule="evenodd" clip-rule="evenodd"
          d="M20.1835 40.0246C17.9809 40.7247 15.8789 41.0808 13.9403 41.0809C10.593 41.0807 7.88611 40.0517 5.89467 38.0211L5.88615 38.0125L5.87764 38.004C2.58271 34.7806 1.0971 28.7172 1.90635 21.7832C2.67301 15.1781 5.26942 9.10273 8.85397 5.53011C11.1437 3.22844 13.7367 2.06312 16.5631 2.06312C17.7268 2.06312 18.9466 2.26074 20.1886 2.65088C23.906 3.81961 27.8466 6.48417 32.237 10.7979C36.3122 14.9361 38.527 18.272 39.2068 21.2926C39.9223 24.4938 38.6872 27.4923 35.2048 31.0104C31.2693 34.9135 25.6557 38.2834 20.1835 40.0246ZM5.04453 38.8558C7.30191 41.1575 10.3822 42.2734 13.9412 42.2734H13.9429C16.006 42.2734 18.231 41.8986 20.548 41.1609C26.8602 39.1523 32.4841 35.3923 36.0499 31.8537C39.66 28.2095 41.2103 24.7868 40.3721 21.0302C39.5322 17.3043 36.6462 13.5749 33.0803 9.95457C29.4719 6.4075 25.1838 2.96947 20.548 1.51282C19.1868 1.0852 17.8562 0.868835 16.5648 0.868835C13.4522 0.868835 10.5645 2.11933 8.01405 4.68337C4.44654 8.23896 1.5605 14.4199 0.72229 21.6435C-0.115922 28.8365 1.43613 35.3241 5.04453 38.8558ZM15.5902 38.2538C17.2513 38.2538 19.0266 37.9573 20.8665 37.3764C25.5159 35.9095 30.1806 33.0081 33.3971 29.5905C36.1707 26.6551 37.1861 24.0655 36.6511 21.3021C36.1417 18.4962 34.2762 15.5028 30.8842 12.0256C27.2042 8.35924 23.6878 6.08823 20.2771 5.21254C19.2088 4.9195 18.1594 4.78491 17.1576 4.80876C14.7213 4.87009 12.4844 5.87527 10.5184 7.7885C7.31373 10.8534 5.03079 16.0258 4.45495 21.6718C3.84844 27.6432 5.37835 32.8684 8.47053 35.6539C8.47053 35.6539 8.47734 35.6608 8.47905 35.6608C8.4799 35.6608 8.4816 35.6625 8.48331 35.6642C8.48501 35.6659 8.48671 35.6676 8.48757 35.6676C10.2952 37.3764 12.6923 38.2555 15.5919 38.2555L15.5902 38.2538ZM20.5462 38.6132C18.558 39.1669 16.6482 39.4106 14.873 39.339C11.8609 39.2317 9.23889 38.2112 7.28817 36.2468C4.10399 33.158 2.64223 27.662 3.27089 21.5662C3.89955 15.3767 6.42781 10.0527 9.66822 6.94688C11.8711 4.79684 14.3823 3.69796 17.0912 3.623C18.2122 3.59233 19.3673 3.73885 20.5479 4.05914C24.7322 5.1512 28.5859 8.03553 31.7343 11.1822C34.7958 14.3238 37.1963 17.6886 37.825 21.1045C38.4536 24.4522 37.1197 27.5103 34.1212 30.64C31.0085 33.894 26.0815 37.1038 20.5479 38.6115L20.5462 38.6132ZM21.5495 34.7317C20.0707 35.1934 18.6226 35.4302 17.2409 35.4302V35.4285C14.7859 35.4285 12.7006 34.701 11.077 33.3142L11.0702 33.3091L11.0633 33.304C8.1756 30.9563 6.59969 26.571 7.00346 21.5605C7.38679 16.8736 9.35625 12.6059 12.181 10.0487C13.825 8.5256 15.7059 7.67887 17.752 7.5562C18.5936 7.50679 19.471 7.57834 20.3654 7.77427C23.4696 8.35693 26.5634 10.2344 29.5313 13.2533C32.2384 16.0695 33.753 18.7221 34.0937 21.3134C34.4515 23.639 33.6525 25.818 31.5893 28.1725C29.0917 31.1062 25.376 33.5408 21.5495 34.7317ZM15.8013 36.4013C17.2869 36.5444 18.8832 36.4319 20.5426 36.0639C25.2993 35.0588 29.5279 32.3993 32.1873 29.4298C34.5725 26.8112 35.6901 24.1194 35.271 21.1806C34.8519 18.0747 32.9386 15.0763 30.3814 12.4117C27.6947 9.66366 24.2771 7.33472 20.5426 6.60554C19.5409 6.39258 18.5612 6.31592 17.6123 6.37555C15.3055 6.52547 13.1725 7.47271 11.3155 9.20877C8.40219 11.8682 6.23169 16.3336 5.81259 21.4889C5.39348 26.4858 6.76835 30.9904 9.52662 33.6362C11.1724 35.2632 13.3343 36.1866 15.8013 36.4013ZM18.8923 32.604C19.9946 32.604 21.1173 32.4268 22.2332 32.0843C25.2368 31.1695 28.0019 29.2034 29.7822 26.7535C31.135 24.9817 31.7176 23.2099 31.5387 21.3256C31.3684 18.9506 30.203 16.637 28.1791 14.4819C25.9217 12.1086 23.252 10.6282 20.4529 10.3351C19.7322 10.238 19.0252 10.2278 18.3454 10.3027C16.6877 10.4867 15.1646 11.1733 13.8443 12.3063C11.3978 14.3541 9.74351 17.7206 9.5527 21.4482C9.34996 25.4979 10.9719 29.0433 13.6552 30.9531C13.6552 30.9531 13.6603 30.9565 13.662 30.9582L13.6636 30.9595L13.6654 30.9608L13.667 30.9619L13.6688 30.9633C15.1084 32.0281 16.8836 32.6057 18.8923 32.6057V32.604ZM20.5432 33.5205C19.2126 33.7045 17.9314 33.6841 16.7337 33.4711C14.8137 33.1491 13.11 32.3229 11.7709 31.0332C9.43685 28.8303 8.15227 25.3156 8.36183 21.4176C8.57138 17.2964 10.3824 13.688 12.9703 11.4783C14.4798 10.1562 16.2345 9.3589 18.1393 9.13742C18.9178 9.04713 19.722 9.05395 20.5432 9.16128C23.8262 9.52587 26.8093 11.3028 29.0343 13.6488C31.0856 15.8363 32.5149 18.4685 32.7245 21.2642C32.934 23.7942 32.0328 26.1214 30.2593 28.2255C28.053 30.9105 24.5213 33.0197 20.5449 33.5222L20.5432 33.5205ZM20.5429 29.7769C25.1974 29.7769 28.983 25.9913 28.983 21.3368C28.983 16.6823 25.1974 12.8968 20.5429 12.8968C15.8884 12.8968 12.1029 16.6823 12.1029 21.3368C12.1029 25.9913 15.8884 29.7769 20.5429 29.7769ZM20.5429 30.9694C15.2223 30.9694 10.9103 26.6557 10.9103 21.3368C10.9103 16.0179 15.224 11.7042 20.5429 11.7042C25.8618 11.7042 30.1755 16.0179 30.1755 21.3368C30.1755 26.6557 25.8618 30.9694 20.5429 30.9694Z"
          fill="url(#paint0_linear_3733_47897)"/>
    <defs>
        <linearGradient id="paint0_linear_3733_47897" x1="-3.22306" y1="43.6536" x2="45.9549" y2="35.463"
                        gradientUnits="userSpaceOnUse">
            <stop offset="0.03125" stop-color="#CDE768"/>
            <stop offset="0.708333" stop-color="#74DE6F"/>
        </linearGradient>
    </defs>
</svg>
