<svg width="15" height="16" viewBox="0 0 15 16" fill="none" xmlns="http://www.w3.org/2000/svg">
<path d="M1.66667 15.5C1.20833 15.5 0.816111 15.3369 0.49 15.0108C0.163889 14.6847 0.000555556 14.2922 0 13.8333V2.16667C0 1.70833 0.163333 1.31611 0.49 0.99C0.816667 0.663889 1.20889 0.500556 1.66667 0.5H6.66667C6.90278 0.5 7.10083 0.58 7.26083 0.74C7.42083 0.9 7.50056 1.09778 7.5 1.33333C7.49944 1.56889 7.41944 1.76694 7.26 1.9275C7.10056 2.08806 6.90278 2.16778 6.66667 2.16667H1.66667V13.8333H6.66667C6.90278 13.8333 7.10083 13.9133 7.26083 14.0733C7.42083 14.2333 7.50056 14.4311 7.5 14.6667C7.49944 14.9022 7.41944 15.1003 7.26 15.2608C7.10056 15.4214 6.90278 15.5011 6.66667 15.5H1.66667ZM11.8125 8.83333H5.83333C5.59722 8.83333 5.39944 8.75333 5.24 8.59333C5.08056 8.43333 5.00056 8.23556 5 8C4.99944 7.76444 5.07944 7.56667 5.24 7.40667C5.40056 7.24667 5.59833 7.16667 5.83333 7.16667H11.8125L10.25 5.60417C10.0972 5.45139 10.0208 5.26389 10.0208 5.04167C10.0208 4.81944 10.0972 4.625 10.25 4.45833C10.4028 4.29167 10.5972 4.20472 10.8333 4.1975C11.0694 4.19028 11.2708 4.27028 11.4375 4.4375L14.4167 7.41667C14.5833 7.58333 14.6667 7.77778 14.6667 8C14.6667 8.22222 14.5833 8.41667 14.4167 8.58333L11.4375 11.5625C11.2708 11.7292 11.0731 11.8092 10.8442 11.8025C10.6153 11.7958 10.4172 11.7089 10.25 11.5417C10.0972 11.375 10.0244 11.1772 10.0317 10.9483C10.0389 10.7194 10.1186 10.5283 10.2708 10.375L11.8125 8.83333Z" fill="white"/>
</svg>
