<svg width="16" height="16" viewBox="0 0 16 16" fill="none" xmlns="http://www.w3.org/2000/svg">
<path d="M7.54736 15.5C7.31125 15.5 7.11334 15.4201 6.95361 15.2604C6.79389 15.1007 6.71403 14.9028 6.71403 14.6667V11.3333C6.71403 11.0972 6.79389 10.8993 6.95361 10.7396C7.11334 10.5799 7.31125 10.5 7.54736 10.5C7.78347 10.5 7.98139 10.5799 8.14111 10.7396C8.30084 10.8993 8.3807 11.0972 8.3807 11.3333V12.1667H14.214C14.4501 12.1667 14.6481 12.2465 14.8078 12.4062C14.9675 12.566 15.0474 12.7639 15.0474 13C15.0474 13.2361 14.9675 13.434 14.8078 13.5938C14.6481 13.7535 14.4501 13.8333 14.214 13.8333H8.3807V14.6667C8.3807 14.9028 8.30084 15.1007 8.14111 15.2604C7.98139 15.4201 7.78347 15.5 7.54736 15.5ZM0.880697 13.8333C0.644586 13.8333 0.446669 13.7535 0.286947 13.5938C0.127224 13.434 0.0473633 13.2361 0.0473633 13C0.0473633 12.7639 0.127224 12.566 0.286947 12.4062C0.446669 12.2465 0.644586 12.1667 0.880697 12.1667H4.21403C4.45014 12.1667 4.64806 12.2465 4.80778 12.4062C4.9675 12.566 5.04736 12.7639 5.04736 13C5.04736 13.2361 4.9675 13.434 4.80778 13.5938C4.64806 13.7535 4.45014 13.8333 4.21403 13.8333H0.880697ZM4.21403 10.5C3.97792 10.5 3.78 10.4201 3.62028 10.2604C3.46056 10.1007 3.3807 9.90278 3.3807 9.66667V8.83333H0.880697C0.644586 8.83333 0.446669 8.75347 0.286947 8.59375C0.127224 8.43403 0.0473633 8.23611 0.0473633 8C0.0473633 7.76389 0.127224 7.56597 0.286947 7.40625C0.446669 7.24653 0.644586 7.16667 0.880697 7.16667H3.3807V6.33333C3.3807 6.09722 3.46056 5.89931 3.62028 5.73958C3.78 5.57986 3.97792 5.5 4.21403 5.5C4.45014 5.5 4.64806 5.57986 4.80778 5.73958C4.9675 5.89931 5.04736 6.09722 5.04736 6.33333V9.66667C5.04736 9.90278 4.9675 10.1007 4.80778 10.2604C4.64806 10.4201 4.45014 10.5 4.21403 10.5ZM7.54736 8.83333C7.31125 8.83333 7.11334 8.75347 6.95361 8.59375C6.79389 8.43403 6.71403 8.23611 6.71403 8C6.71403 7.76389 6.79389 7.56597 6.95361 7.40625C7.11334 7.24653 7.31125 7.16667 7.54736 7.16667H14.214C14.4501 7.16667 14.6481 7.24653 14.8078 7.40625C14.9675 7.56597 15.0474 7.76389 15.0474 8C15.0474 8.23611 14.9675 8.43403 14.8078 8.59375C14.6481 8.75347 14.4501 8.83333 14.214 8.83333H7.54736ZM10.8807 5.5C10.6446 5.5 10.4467 5.42014 10.2869 5.26042C10.1272 5.10069 10.0474 4.90278 10.0474 4.66667V1.33333C10.0474 1.09722 10.1272 0.899306 10.2869 0.739583C10.4467 0.579861 10.6446 0.5 10.8807 0.5C11.1168 0.5 11.3147 0.579861 11.4744 0.739583C11.6342 0.899306 11.714 1.09722 11.714 1.33333V2.16667H14.214C14.4501 2.16667 14.6481 2.24653 14.8078 2.40625C14.9675 2.56597 15.0474 2.76389 15.0474 3C15.0474 3.23611 14.9675 3.43403 14.8078 3.59375C14.6481 3.75347 14.4501 3.83333 14.214 3.83333H11.714V4.66667C11.714 4.90278 11.6342 5.10069 11.4744 5.26042C11.3147 5.42014 11.1168 5.5 10.8807 5.5ZM0.880697 3.83333C0.644586 3.83333 0.446669 3.75347 0.286947 3.59375C0.127224 3.43403 0.0473633 3.23611 0.0473633 3C0.0473633 2.76389 0.127224 2.56597 0.286947 2.40625C0.446669 2.24653 0.644586 2.16667 0.880697 2.16667H7.54736C7.78347 2.16667 7.98139 2.24653 8.14111 2.40625C8.30084 2.56597 8.3807 2.76389 8.3807 3C8.3807 3.23611 8.30084 3.43403 8.14111 3.59375C7.98139 3.75347 7.78347 3.83333 7.54736 3.83333H0.880697Z" fill="white"/>
</svg>
