<svg width="20" height="21" viewBox="0 0 20 21" fill="none" xmlns="http://www.w3.org/2000/svg">
    <path d="M9.61328 4.9231C9.70647 4.94052 9.78325 4.98818 9.8418 5.04517L9.90332 5.11743L9.9502 5.19458C9.99001 5.2719 10.013 5.35681 10.0244 5.4397H10.0254L11.2568 13.1223L11.9229 8.97583C11.9397 8.87116 11.9773 8.76352 12.042 8.6731L12.0977 8.60767C12.1606 8.544 12.2459 8.49083 12.3525 8.47583L12.459 8.47485C12.5269 8.4831 12.5888 8.50778 12.6416 8.54224L12.7139 8.60083L12.7715 8.66626C12.8184 8.72977 12.85 8.80177 12.8711 8.87231L13.9297 11.9348L14.3623 11.2122L14.4268 11.1233C14.4518 11.0953 14.4809 11.0689 14.5137 11.0461L14.5664 11.0149C14.6224 10.9865 14.6865 10.969 14.7559 10.969H16.7324C16.8761 10.969 16.9867 11.0395 17.0625 11.1243L17.126 11.2112L17.1729 11.3049C17.2121 11.4025 17.2295 11.5095 17.2295 11.6116C17.2295 11.7476 17.1978 11.8921 17.126 12.012C17.0559 12.1289 16.9237 12.2542 16.7324 12.2542H15.0068L14.2158 13.5745L14.2148 13.5735C14.1898 13.6162 14.1588 13.6578 14.1201 13.6946L14.1211 13.6956C14.0032 13.8087 13.8242 13.8635 13.6475 13.7844C13.495 13.7161 13.408 13.5756 13.3652 13.4524V13.4514L12.584 11.1917L11.748 16.4026L11.7471 16.4016C11.7357 16.4852 11.7121 16.5707 11.6719 16.6487L11.625 16.7258C11.5633 16.8116 11.4655 16.8949 11.335 16.9192L11.2773 16.926C11.1554 16.9315 11.0535 16.8836 10.9775 16.8186L10.9102 16.7493C10.8526 16.6775 10.8143 16.5928 10.791 16.5071L10.7725 16.4221L9.53613 8.71997L8.3291 16.2395L8.33008 16.2405C8.32012 16.3233 8.29743 16.4078 8.25977 16.4856L8.21777 16.5608C8.17026 16.6321 8.0989 16.7036 8.00391 16.7444L7.90039 16.7737C7.78404 16.7912 7.68022 16.7581 7.59863 16.7024L7.52539 16.6399C7.44103 16.5534 7.3908 16.4422 7.36523 16.3352V16.3362L6.33594 12.092L6.11426 13.4749L6.11328 13.4739C6.10068 13.5641 6.07459 13.6553 6.0293 13.7366C5.98351 13.8187 5.91266 13.9021 5.81055 13.9524C5.72875 13.9926 5.63804 14.006 5.5498 13.9895L5.46289 13.9631C5.38266 13.9291 5.32018 13.8742 5.27344 13.8147L5.23145 13.7542L4.62598 12.7444H3.26562C3.07448 12.7442 2.94207 12.6191 2.87207 12.5022C2.8003 12.3823 2.76855 12.2378 2.76855 12.1018L2.77441 11.9993C2.78663 11.8955 2.81815 11.7915 2.87207 11.7014L2.93652 11.6145C3.01221 11.53 3.12234 11.4593 3.26562 11.4592H4.87598C4.94566 11.4592 5.01018 11.4765 5.06641 11.5051L5.11914 11.5374L5.20703 11.6155C5.2316 11.6432 5.25275 11.6726 5.27051 11.7024L5.3584 11.8499L5.75293 9.39771V9.39673L5.77051 9.31567C5.79235 9.23413 5.82765 9.15373 5.87988 9.08423L5.94043 9.01685C6.00869 8.95255 6.10044 8.90079 6.21387 8.8938L6.32422 8.90259C6.39306 8.9171 6.45357 8.94818 6.50391 8.98755L6.57227 9.052L6.625 9.12231C6.67014 9.19347 6.69871 9.27316 6.71582 9.35083L7.74023 13.5764L9.05078 5.42114L9.06836 5.33521C9.09173 5.24947 9.1309 5.16477 9.18848 5.09302L9.25586 5.02368C9.33176 4.95891 9.43312 4.91186 9.55469 4.91724L9.61328 4.9231Z"
          fill="white" stroke="white" stroke-width="0.56"/>
    <path d="M17.449 5.12644L17.2292 5.04644C16.8961 4.9251 16.5936 4.73428 16.3424 4.48706C16.0912 4.23984 15.8974 3.94207 15.7741 3.61417L15.6928 3.3978C15.6805 3.3651 15.6583 3.33689 15.6292 3.31697C15.6001 3.29705 15.5656 3.28638 15.5301 3.28638C15.4947 3.28638 15.4601 3.29705 15.431 3.31697C15.402 3.33689 15.3798 3.3651 15.3674 3.3978L15.2862 3.61417C15.1629 3.94209 14.969 4.23988 14.7178 4.48711C14.4666 4.73433 14.1641 4.92514 13.8309 5.04644L13.6115 5.12644C13.5782 5.13851 13.5495 5.16033 13.5292 5.18896C13.5089 5.2176 13.498 5.25167 13.498 5.28658C13.498 5.32149 13.5089 5.35555 13.5292 5.38419C13.5495 5.41282 13.5782 5.43465 13.6115 5.44671L13.8312 5.52672C14.1643 5.6481 14.4668 5.83896 14.718 6.08619C14.9692 6.33343 15.1631 6.63121 15.2864 6.95911L15.3677 7.17536C15.38 7.20811 15.4021 7.23638 15.4312 7.25635C15.4603 7.27631 15.4949 7.28702 15.5304 7.28702C15.5659 7.28702 15.6005 7.27631 15.6296 7.25635C15.6587 7.23638 15.6808 7.20811 15.6931 7.17536L15.7744 6.95911C15.8976 6.63121 16.0915 6.33342 16.3427 6.08618C16.5938 5.83894 16.8964 5.64809 17.2295 5.52672L17.4493 5.44671C17.4825 5.43459 17.5112 5.41275 17.5314 5.38412C17.5517 5.35549 17.5625 5.32145 17.5625 5.28658C17.5625 5.2517 17.5517 5.21766 17.5314 5.18903C17.5112 5.16041 17.4823 5.13856 17.449 5.12644Z"
          fill="white"/>
</svg>
