<svg width="17" height="18" viewBox="0 0 17 18" fill="none" xmlns="http://www.w3.org/2000/svg">
    <path d="M7.52106 17.3327C7.14606 17.3327 6.82328 17.2077 6.55273 16.9577C6.28217 16.7077 6.11884 16.4021 6.06273 16.041L5.87523 14.666C5.69467 14.5966 5.52467 14.5132 5.36523 14.416C5.20578 14.3188 5.04939 14.2146 4.89606 14.1035L3.60439 14.6452C3.25717 14.798 2.90995 14.8118 2.56273 14.6868C2.21551 14.5618 1.94467 14.3396 1.75023 14.0202L0.771061 12.3118C0.576617 11.9924 0.521061 11.6521 0.604395 11.291C0.687728 10.9299 0.875228 10.6313 1.16689 10.3952L2.27106 9.56185C2.25717 9.46463 2.25023 9.37074 2.25023 9.28018V8.71768C2.25023 8.62768 2.25717 8.53407 2.27106 8.43685L1.16689 7.60352C0.875228 7.3674 0.687728 7.06879 0.604395 6.70768C0.521061 6.34657 0.576617 6.00629 0.771061 5.68685L1.75023 3.97852C1.94467 3.65907 2.21551 3.43685 2.56273 3.31185C2.90995 3.18685 3.25717 3.20074 3.60439 3.35352L4.89606 3.89518C5.04884 3.78407 5.20856 3.6799 5.37523 3.58268C5.54189 3.48546 5.70856 3.40213 5.87523 3.33268L6.06273 1.95768C6.11828 1.59657 6.28162 1.29102 6.55273 1.04102C6.82384 0.791016 7.14662 0.666016 7.52106 0.666016H9.47939C9.85439 0.666016 10.1774 0.791016 10.4486 1.04102C10.7197 1.29102 10.8827 1.59657 10.9377 1.95768L11.1252 3.33268C11.3058 3.40213 11.4761 3.48546 11.6361 3.58268C11.7961 3.6799 11.9522 3.78407 12.1044 3.89518L13.3961 3.35352C13.7433 3.20074 14.0905 3.18685 14.4377 3.31185C14.785 3.43685 15.0558 3.65907 15.2502 3.97852L16.2294 5.68685C16.4238 6.00629 16.4794 6.34657 16.3961 6.70768C16.3127 7.06879 16.1252 7.3674 15.8336 7.60352L14.7294 8.43685C14.7433 8.53407 14.7502 8.62796 14.7502 8.71852V9.28018C14.7502 9.37074 14.7363 9.46463 14.7086 9.56185L15.8127 10.3952C16.1044 10.6313 16.2919 10.9299 16.3752 11.291C16.4586 11.6521 16.403 11.9924 16.2086 12.3118L15.2086 14.0202C15.0141 14.3396 14.7433 14.5618 14.3961 14.6868C14.0488 14.8118 13.7016 14.798 13.3544 14.6452L12.1044 14.1035C11.9516 14.2146 11.7919 14.3188 11.6252 14.416C11.4586 14.5132 11.2919 14.5966 11.1252 14.666L10.9377 16.041C10.8822 16.4021 10.7191 16.7077 10.4486 16.9577C10.178 17.2077 9.85495 17.3327 9.47939 17.3327H7.52106ZM8.54189 11.916C9.34745 11.916 10.0349 11.6313 10.6044 11.0618C11.1738 10.4924 11.4586 9.8049 11.4586 8.99935C11.4586 8.19379 11.1738 7.50629 10.6044 6.93685C10.0349 6.3674 9.34745 6.08268 8.54189 6.08268C7.72245 6.08268 7.03134 6.3674 6.46856 6.93685C5.90578 7.50629 5.62467 8.19379 5.62523 8.99935C5.62523 9.8049 5.90662 10.4924 6.46939 11.0618C7.03217 11.6313 7.72301 11.916 8.54189 11.916Z" fill="white"/>
</svg>
