<svg width="16" height="16" viewBox="0 0 16 16" fill="none" xmlns="http://www.w3.org/2000/svg">
    <path d="M8.04688 15.4214C7.81076 15.4214 7.61285 15.3415 7.45312 15.1818C7.2934 15.0221 7.21354 14.8242 7.21354 14.5881V11.2547C7.21354 11.0186 7.2934 10.8207 7.45312 10.661C7.61285 10.5012 7.81076 10.4214 8.04688 10.4214C8.28299 10.4214 8.4809 10.5012 8.64062 10.661C8.80035 10.8207 8.88021 11.0186 8.88021 11.2547V12.0881H14.7135C14.9497 12.0881 15.1476 12.1679 15.3073 12.3276C15.467 12.4874 15.5469 12.6853 15.5469 12.9214C15.5469 13.1575 15.467 13.3554 15.3073 13.5151C15.1476 13.6749 14.9497 13.7547 14.7135 13.7547H8.88021V14.5881C8.88021 14.8242 8.80035 15.0221 8.64062 15.1818C8.4809 15.3415 8.28299 15.4214 8.04688 15.4214ZM1.38021 13.7547C1.1441 13.7547 0.946181 13.6749 0.786458 13.5151C0.626736 13.3554 0.546875 13.1575 0.546875 12.9214C0.546875 12.6853 0.626736 12.4874 0.786458 12.3276C0.946181 12.1679 1.1441 12.0881 1.38021 12.0881H4.71354C4.94965 12.0881 5.14757 12.1679 5.30729 12.3276C5.46701 12.4874 5.54688 12.6853 5.54688 12.9214C5.54688 13.1575 5.46701 13.3554 5.30729 13.5151C5.14757 13.6749 4.94965 13.7547 4.71354 13.7547H1.38021ZM4.71354 10.4214C4.47743 10.4214 4.27951 10.3415 4.11979 10.1818C3.96007 10.0221 3.88021 9.82416 3.88021 9.58805V8.75472H1.38021C1.1441 8.75472 0.946181 8.67486 0.786458 8.51514C0.626736 8.35541 0.546875 8.1575 0.546875 7.92139C0.546875 7.68528 0.626736 7.48736 0.786458 7.32764C0.946181 7.16791 1.1441 7.08805 1.38021 7.08805H3.88021V6.25472C3.88021 6.01861 3.96007 5.82069 4.11979 5.66097C4.27951 5.50125 4.47743 5.42139 4.71354 5.42139C4.94965 5.42139 5.14757 5.50125 5.30729 5.66097C5.46701 5.82069 5.54688 6.01861 5.54688 6.25472V9.58805C5.54688 9.82416 5.46701 10.0221 5.30729 10.1818C5.14757 10.3415 4.94965 10.4214 4.71354 10.4214ZM8.04688 8.75472C7.81076 8.75472 7.61285 8.67486 7.45312 8.51514C7.2934 8.35541 7.21354 8.1575 7.21354 7.92139C7.21354 7.68528 7.2934 7.48736 7.45312 7.32764C7.61285 7.16791 7.81076 7.08805 8.04688 7.08805H14.7135C14.9497 7.08805 15.1476 7.16791 15.3073 7.32764C15.467 7.48736 15.5469 7.68528 15.5469 7.92139C15.5469 8.1575 15.467 8.35541 15.3073 8.51514C15.1476 8.67486 14.9497 8.75472 14.7135 8.75472H8.04688ZM11.3802 5.42139C11.1441 5.42139 10.9462 5.34153 10.7865 5.1818C10.6267 5.02208 10.5469 4.82416 10.5469 4.58805V1.25472C10.5469 1.01861 10.6267 0.820692 10.7865 0.66097C10.9462 0.501248 11.1441 0.421387 11.3802 0.421387C11.6163 0.421387 11.8142 0.501248 11.974 0.66097C12.1337 0.820692 12.2135 1.01861 12.2135 1.25472V2.08805H14.7135C14.9497 2.08805 15.1476 2.16791 15.3073 2.32764C15.467 2.48736 15.5469 2.68528 15.5469 2.92139C15.5469 3.1575 15.467 3.35541 15.3073 3.51514C15.1476 3.67486 14.9497 3.75472 14.7135 3.75472H12.2135V4.58805C12.2135 4.82416 12.1337 5.02208 11.974 5.1818C11.8142 5.34153 11.6163 5.42139 11.3802 5.42139ZM1.38021 3.75472C1.1441 3.75472 0.946181 3.67486 0.786458 3.51514C0.626736 3.35541 0.546875 3.1575 0.546875 2.92139C0.546875 2.68528 0.626736 2.48736 0.786458 2.32764C0.946181 2.16791 1.1441 2.08805 1.38021 2.08805H8.04688C8.28299 2.08805 8.4809 2.16791 8.64062 2.32764C8.80035 2.48736 8.88021 2.68528 8.88021 2.92139C8.88021 3.1575 8.80035 3.35541 8.64062 3.51514C8.4809 3.67486 8.28299 3.75472 8.04688 3.75472H1.38021Z"
          fill="white" fill-opacity="0.6"/>
</svg>
