<svg width="20" height="20" viewBox="0 0 20 20" fill="none" xmlns="http://www.w3.org/2000/svg">
    <path d="M7.95832 12.625L15.0208 5.5625C15.1875 5.39583 15.3819 5.3125 15.6042 5.3125C15.8264 5.3125 16.0208 5.39583 16.1875 5.5625C16.3542 5.72917 16.4375 5.92722 16.4375 6.15667C16.4375 6.38611 16.3542 6.58389 16.1875 6.75L8.54165 14.4167C8.37499 14.5833 8.18054 14.6667 7.95832 14.6667C7.7361 14.6667 7.54165 14.5833 7.37499 14.4167L3.79165 10.8333C3.62499 10.6667 3.54499 10.4689 3.55165 10.24C3.55832 10.0111 3.64527 9.81306 3.81249 9.64583C3.97971 9.47861 4.17777 9.39528 4.40665 9.39583C4.63554 9.39639 4.83332 9.47972 4.99999 9.64583L7.95832 12.625Z"
          fill="white"/>
</svg>
