<svg width="20" height="20" viewBox="0 0 20 20" fill="none" xmlns="http://www.w3.org/2000/svg">
    <path d="M6.11111 13.8889H6.90278L12.3333 8.45833L11.5417 7.66667L6.11111 13.0972V13.8889ZM5.55556 15C5.39815 15 5.2663 14.9467 5.16 14.84C5.0537 14.7333 5.00037 14.6015 5 14.4444V13.0972C5 12.9491 5.02778 12.8078 5.08333 12.6733C5.13889 12.5389 5.21759 12.4209 5.31944 12.3194L12.3333 5.31944C12.4444 5.21759 12.5672 5.13889 12.7017 5.08333C12.8361 5.02778 12.9772 5 13.125 5C13.2728 5 13.4163 5.02778 13.5556 5.08333C13.6948 5.13889 13.8152 5.22222 13.9167 5.33333L14.6806 6.11111C14.7917 6.21296 14.8726 6.33333 14.9233 6.47222C14.9741 6.61111 14.9996 6.75 15 6.88889C15 7.03704 14.9744 7.17833 14.9233 7.31278C14.8722 7.44722 14.7913 7.56981 14.6806 7.68056L7.68056 14.6806C7.5787 14.7824 7.46056 14.8611 7.32611 14.9167C7.19167 14.9722 7.05056 15 6.90278 15H5.55556ZM11.9306 8.06944L11.5417 7.66667L12.3333 8.45833L11.9306 8.06944Z"
          fill="white"/>
</svg>
