<svg width="14" height="14" viewBox="0 0 14 14" fill="none" xmlns="http://www.w3.org/2000/svg">
    <path opacity="0.2"
          d="M7 1C7.78793 1 8.56815 1.15519 9.2961 1.45672C10.0241 1.75825 10.6855 2.20021 11.2426 2.75736C11.7998 3.31451 12.2417 3.97595 12.5433 4.7039C12.8448 5.43185 13 6.21207 13 7C13 7.78793 12.8448 8.56815 12.5433 9.2961C12.2417 10.0241 11.7998 10.6855 11.2426 11.2426C10.6855 11.7998 10.0241 12.2417 9.2961 12.5433C8.56815 12.8448 7.78793 13 7 13C6.21207 13 5.43185 12.8448 4.7039 12.5433C3.97594 12.2417 3.31451 11.7998 2.75736 11.2426C2.20021 10.6855 1.75825 10.0241 1.45672 9.2961C1.15519 8.56814 1 7.78793 1 7C1 6.21207 1.1552 5.43185 1.45672 4.7039C1.75825 3.97594 2.20021 3.31451 2.75736 2.75736C3.31451 2.20021 3.97595 1.75825 4.7039 1.45672C5.43186 1.15519 6.21207 0.999999 7 1L7 1Z"
          stroke="#52BB4D" stroke-width="2" stroke-linecap="round"/>
    <path d="M7 1C8.5913 1 10.1174 1.63214 11.2426 2.75736C12.3679 3.88258 13 5.4087 13 7" stroke="#52BB4D"
          stroke-width="2" stroke-linecap="round"/>
</svg>
