<svg width="9" height="10" viewBox="0 0 9 10" fill="none" xmlns="http://www.w3.org/2000/svg">
    <path d="M4.50005 6.25544L1.8367 8.92609C1.66809 9.09348 1.45383 9.17718 1.19392 9.17718C0.934005 9.17718 0.719745 9.09348 0.551136 8.92609C0.383745 8.7587 0.300049 8.54565 0.300049 8.28696C0.300049 8.02826 0.383745 7.81522 0.551136 7.64783L3.22179 4.97718L0.551136 2.33665C0.383745 2.16805 0.300049 1.95379 0.300049 1.69387C0.300049 1.43396 0.383745 1.2197 0.551136 1.05109C0.718527 0.883698 0.93157 0.800003 1.19027 0.800003C1.44896 0.800003 1.662 0.883698 1.8294 1.05109L4.50005 3.72174L7.14057 1.05109C7.30918 0.883698 7.52344 0.800003 7.78335 0.800003C8.04326 0.800003 8.25753 0.883698 8.42613 1.05109C8.60874 1.2337 8.70005 1.4507 8.70005 1.70209C8.70005 1.95348 8.60874 2.16257 8.42613 2.32935L5.75548 4.97718L8.42613 7.64052C8.59353 7.80913 8.67722 8.02339 8.67722 8.28331C8.67722 8.54322 8.59353 8.75748 8.42613 8.92609C8.24353 9.1087 8.02683 9.2 7.77605 9.2C7.52527 9.2 7.31587 9.1087 7.14787 8.92609L4.50005 6.25544Z" fill="black"/>
</svg>
