<svg width="13" height="13" viewBox="0 0 13 13" fill="none" xmlns="http://www.w3.org/2000/svg">
    <g clip-path="url(#clip0_7211_5127)">
        <path d="M12.2397 6.40442C12.2862 6.35843 12.3231 6.30371 12.3483 6.24341C12.3736 6.18311 12.3867 6.11841 12.3868 6.05304C12.387 5.98767 12.3742 5.92292 12.3493 5.86249C12.3244 5.80206 12.2877 5.74716 12.2415 5.70093L10.0104 3.46836C9.91737 3.37544 9.79123 3.32324 9.65971 3.32324C9.52819 3.32324 9.40205 3.37544 9.30898 3.46836L8.81301 3.96271L8.79943 3.97629L3.67045 9.07308C3.61221 9.12412 3.56662 9.188 3.53728 9.25967C3.50794 9.33134 3.49564 9.40884 3.50137 9.48607L3.66325 11.5534C3.67264 11.671 3.72364 11.7815 3.80712 11.865C3.8906 11.9484 4.00109 11.9994 4.11876 12.0087L6.18537 12.1731C6.29777 12.1832 6.41024 12.1544 6.50398 12.0916L6.50656 12.0898L6.51049 12.0871C6.53635 12.0698 6.56054 12.0502 6.58275 12.0284L11.4886 7.15178C11.4959 7.14526 11.5031 7.1382 11.5102 7.13168L12.2397 6.40442ZM4.83664 9.31414L8.79168 5.38259C8.82758 5.34681 8.8762 5.32671 8.92688 5.32671C8.97757 5.32671 9.02618 5.34681 9.06208 5.38259L10.3206 6.64209C10.3385 6.65989 10.3527 6.68106 10.3624 6.70436C10.3721 6.72767 10.3771 6.75266 10.3771 6.7779C10.3771 6.80314 10.3721 6.82813 10.3624 6.85143C10.3527 6.87474 10.3385 6.8959 10.3206 6.91371L6.36572 10.8444C6.32981 10.8802 6.2812 10.9003 6.23052 10.9003C6.17985 10.9003 6.13124 10.8802 6.09532 10.8444L4.83624 9.58562C4.81835 9.56782 4.80416 9.54665 4.79449 9.52334C4.78482 9.50003 4.77987 9.47503 4.7799 9.44979C4.77994 9.42456 4.78497 9.39958 4.79471 9.37629C4.80445 9.35301 4.8187 9.33189 4.83664 9.31414Z"
              fill="white"/>
        <path d="M2.99744 5.52344C3.04896 5.52355 3.09922 5.53938 3.14149 5.56882C3.18377 5.59825 3.21605 5.6399 3.23402 5.68817L3.27476 5.79818C3.32823 5.94259 3.41228 6.07373 3.52117 6.18261C3.63005 6.2915 3.76119 6.37555 3.9056 6.42901L4.01574 6.46976C4.06404 6.48768 4.1057 6.51995 4.13512 6.56224C4.16454 6.60453 4.18031 6.65482 4.18031 6.70634C4.18031 6.75786 4.16454 6.80814 4.13512 6.85043C4.1057 6.89272 4.06404 6.925 4.01574 6.94292L3.9056 6.98366C3.76116 7.03707 3.62999 7.1211 3.5211 7.23C3.41221 7.33889 3.32817 7.47006 3.27476 7.61449L3.23402 7.7245C3.21614 7.77281 3.18388 7.81449 3.1416 7.84393C3.09931 7.87336 3.04903 7.88914 2.99751 7.88914C2.94599 7.88914 2.89571 7.87336 2.85342 7.84393C2.81114 7.81449 2.77889 7.77281 2.761 7.7245L2.72026 7.61449C2.66679 7.47009 2.58274 7.33895 2.47385 7.23006C2.36497 7.12118 2.23383 7.03712 2.08942 6.98366L1.97928 6.94292C1.93092 6.92506 1.8892 6.8928 1.85973 6.8505C1.83025 6.80821 1.81445 6.75789 1.81445 6.70634C1.81445 6.65478 1.83025 6.60447 1.85973 6.56217C1.8892 6.51987 1.93092 6.48762 1.97928 6.46976L2.08942 6.42901C2.23382 6.37553 2.36497 6.2915 2.4739 6.18266C2.58281 6.07379 2.66686 5.94262 2.72026 5.79818L2.761 5.68817C2.77897 5.63992 2.81123 5.59829 2.85348 5.56885C2.89573 5.53942 2.94595 5.52357 2.99744 5.52344Z"
              fill="white"/>
        <path d="M1.02212 4.44287C1.05301 4.44294 1.08315 4.45242 1.10851 4.47007C1.13387 4.48771 1.15324 4.51266 1.16404 4.5416L1.18849 4.60774C1.2367 4.73811 1.32603 4.84923 1.443 4.92432C1.48195 4.94941 1.52353 4.97017 1.56699 4.98624L1.63299 5.01069C1.662 5.0214 1.68703 5.04075 1.70471 5.06613C1.72239 5.0915 1.73187 5.12168 1.73187 5.15261C1.73187 5.18354 1.72239 5.21372 1.70471 5.23909C1.68703 5.26447 1.662 5.28382 1.63299 5.29453L1.56699 5.31898C1.52353 5.335 1.48196 5.35572 1.443 5.38077C1.36565 5.43041 1.29992 5.49614 1.25028 5.57348C1.22524 5.61244 1.20451 5.65402 1.18849 5.69748L1.16404 5.76348C1.15333 5.79249 1.13398 5.81752 1.10861 5.8352C1.08323 5.85288 1.05305 5.86235 1.02212 5.86235C0.991198 5.86235 0.961016 5.85288 0.935641 5.8352C0.910266 5.81752 0.890918 5.79249 0.880203 5.76348L0.855757 5.69748C0.839686 5.65402 0.818919 5.61244 0.793827 5.57348C0.718794 5.45647 0.607652 5.36712 0.477255 5.31898L0.411118 5.29453C0.382166 5.28376 0.3572 5.26439 0.339572 5.23902C0.321945 5.21365 0.3125 5.1835 0.3125 5.15261C0.3125 5.12172 0.321945 5.09157 0.339572 5.0662C0.3572 5.04083 0.382166 5.02146 0.411118 5.01069L0.477255 4.98624C0.563881 4.95413 0.642549 4.90369 0.707875 4.83836C0.773202 4.77304 0.823647 4.69437 0.855757 4.60774L0.880203 4.5416C0.891007 4.51266 0.910379 4.48771 0.935737 4.47007C0.961096 4.45242 0.991232 4.44294 1.02212 4.44287Z"
              fill="white"/>
        <path d="M4.22887 1.20264C4.32529 1.20291 4.41934 1.23258 4.49847 1.28768C4.5776 1.34279 4.63804 1.42071 4.67174 1.51106L4.74807 1.71708C4.84818 1.98757 5.00561 2.2332 5.20955 2.43714C5.41349 2.64109 5.65912 2.79851 5.92961 2.89862L6.13563 2.97481C6.2261 3.00832 6.30415 3.06873 6.35926 3.14792C6.41438 3.22711 6.44393 3.32127 6.44393 3.41775C6.44393 3.51424 6.41438 3.6084 6.35926 3.68759C6.30415 3.76678 6.2261 3.82719 6.13563 3.8607L5.92961 3.93702C5.65905 4.037 5.41334 4.19438 5.20938 4.39834C5.00542 4.6023 4.84805 4.848 4.74807 5.11856L4.67174 5.32472C4.63823 5.4152 4.57782 5.49324 4.49863 5.54836C4.41945 5.60347 4.32528 5.63302 4.2288 5.63302C4.13232 5.63302 4.03815 5.60347 3.95896 5.54836C3.87978 5.49324 3.81937 5.4152 3.78586 5.32472L3.70967 5.1187C3.60964 4.84817 3.45224 4.60249 3.24829 4.39854C3.04433 4.19459 2.79866 4.03719 2.52813 3.93716L2.32197 3.86083C2.23149 3.82732 2.15345 3.76691 2.09833 3.68773C2.04322 3.60854 2.01367 3.51437 2.01367 3.41789C2.01367 3.32141 2.04322 3.22724 2.09833 3.14806C2.15345 3.06887 2.23149 3.00846 2.32197 2.97495L2.52813 2.89876C2.79862 2.79866 3.04426 2.64124 3.24821 2.4373C3.45215 2.23335 3.60957 1.98771 3.70967 1.71722L3.78586 1.5112C3.81957 1.42082 3.88004 1.34288 3.95919 1.28775C4.03834 1.23262 4.13241 1.20293 4.22887 1.20264Z"
              fill="white"/>
    </g>
    <defs>
        <clipPath id="clip0_7211_5127">
            <rect width="12" height="12" fill="white" transform="translate(0.414062 0.234375)"/>
        </clipPath>
    </defs>
</svg>
