<svg width="32" height="33" viewBox="0 0 32 33" fill="none" xmlns="http://www.w3.org/2000/svg">
    <path d="M13.083 10.731C13.3052 10.7229 13.5062 10.8197 13.6562 10.9507H13.6572C14.1097 11.3365 14.558 11.7232 15.0137 12.1021H15.0127C15.0368 12.1194 15.0606 12.1371 15.0791 12.1519C15.1017 12.1698 15.1194 12.1845 15.1367 12.1958C15.1701 12.2175 15.1875 12.2204 15.2002 12.2192L15.208 12.2183H20.5684C21.0783 12.1894 21.597 12.381 21.9609 12.7427L22.0508 12.8335C22.2322 13.0312 22.3608 13.2678 22.4502 13.5122C22.9302 13.6648 23.3622 14.0152 23.5557 14.4985L23.5938 14.6011C23.67 14.8405 23.6674 15.0946 23.623 15.3276L23.624 15.3286C23.441 16.3489 23.2708 17.3672 23.1016 18.3862L22.584 21.4478C22.5057 21.9001 22.2763 22.3482 21.8936 22.6372C21.5966 22.8659 21.2242 23.0231 20.833 23.0259H20.832L10.0664 23.0269C9.15247 23.0262 8.34781 22.2043 8.34766 21.2964L8.3457 12.7515C8.33549 12.2919 8.47818 11.8173 8.7832 11.4565L8.93066 11.2925C9.2935 10.9321 9.80218 10.7199 10.3174 10.7319V10.731C11.2392 10.7222 12.1635 10.7312 13.083 10.73V10.731ZM11.998 14.2876L11.999 14.2886C11.8719 14.2918 11.7443 14.2905 11.6221 14.2896C11.5041 14.2887 11.3897 14.2886 11.2764 14.2944C11.2028 14.3157 11.1291 14.3846 11.0996 14.4644C10.8003 16.3589 10.4614 18.2527 10.1494 20.1421L10.1484 20.144C10.0282 20.8017 9.93133 21.4862 9.79102 22.1528C9.83023 22.1912 9.89539 22.2159 9.97559 22.2095L9.9873 22.2085L20.7861 22.2065H20.7891L20.8779 22.2036C21.3205 22.1664 21.7185 21.7973 21.7793 21.353L21.7803 21.3491L22.2959 18.272C22.4691 17.2468 22.643 16.2221 22.8125 15.1968V15.1958C22.8374 15.0508 22.8573 14.9548 22.8311 14.8657L22.7822 14.7446C22.6454 14.4739 22.3489 14.2812 22.0488 14.2905H19.0488C18.0501 14.2906 17.0509 14.2891 16.0527 14.2817V14.2808C14.7005 14.2743 13.349 14.2767 11.998 14.2876ZM10.4443 11.5396C10.2898 11.54 10.1757 11.5298 10.0566 11.5513L10.0576 11.5522C9.66394 11.6298 9.32527 11.9466 9.21191 12.3335L9.21094 12.3384C9.17328 12.4528 9.16091 12.5751 9.1582 12.7095C9.15686 12.7767 9.15745 12.8443 9.1582 12.9155C9.15895 12.9859 9.15997 13.0596 9.15723 13.1333C9.15452 14.492 9.15648 15.8506 9.1582 17.2095C9.15987 18.5227 9.16074 19.8363 9.1582 21.1499C9.24611 20.6207 9.32914 20.0927 9.42285 19.5552C9.7034 17.8211 10.0125 16.0892 10.3047 14.3599C10.3949 13.8117 10.9422 13.4611 11.4512 13.478L19.7363 13.4741C20.3413 13.4671 20.928 13.4832 21.5186 13.4663C21.3126 13.1842 20.973 12.9985 20.6299 13.019H20.6211C18.8625 13.0219 17.1037 13.0232 15.3447 13.022H15.3418C15.28 13.0207 15.1776 13.0237 15.0957 13.0181C15.006 13.0119 14.905 12.9939 14.8076 12.9409V12.9419C14.6726 12.8715 14.5487 12.779 14.4336 12.6841L14.1123 12.4097C13.9539 12.2794 13.7986 12.1453 13.6445 12.0132C13.4909 11.8814 13.3384 11.7509 13.1836 11.6235C13.1658 11.6108 13.1472 11.5975 13.1338 11.5874C13.117 11.5748 13.1033 11.5648 13.0908 11.5571C13.0659 11.5418 13.0548 11.5404 13.0498 11.5405H10.4443V11.5396Z"
          fill="white" stroke="white" stroke-width="0.3"/>
</svg>
