<svg xmlns="http://www.w3.org/2000/svg" xmlns:xlink="http://www.w3.org/1999/xlink" viewBox="0 0 20 20" width="20" height="20" style="width: 100%; height: 100%; transform: translate3d(0px, 0px, 0px); content-visibility: visible;" preserveAspectRatio="xMidYMid meet">
    <defs>
        <clipPath id="__lottie_element_26">
            <rect width="20" height="20" x="0" y="0"></rect>
        </clipPath>
    </defs>
    <g clip-path="url(#__lottie_element_26)">
        <g style="display: block;" transform="matrix(1,0,0,1,0,0)" opacity="1">
            <g opacity="1" transform="matrix(1.0285816192626953,-0.006075212266296148,0.13446564972400665,0.9714184403419495,0.7259734272956848,3.885779857635498)">
                <path stroke-linecap="round" stroke-linejoin="miter" fill-opacity="0" stroke-miterlimit="4" stroke="white" stroke-opacity="1" stroke-width="1.33" d=" M14.5,5.644999980926514 C14.5,5.572000026702881 14.5,5.498000144958496 14.5,5.425000190734863 C14.5,4.094880104064941 14.5,3.429810047149658 14.241100311279297,2.9217700958251953 C14.013400077819824,2.4748899936676025 13.650099754333496,2.111560106277466 13.203200340270996,1.8838599920272827 C12.695199966430664,1.625 12.030099868774414,1.625 10.699999809265137,1.625 C9.931366920471191,1.625 9.16273307800293,1.625 8.394100189208984,1.625 C8.242400169372559,1.625 8.166600227355957,1.625 8.093500137329102,1.6204999685287476 C7.561999797821045,1.5877100229263306 7.056839942932129,1.377210021018982 6.6593098640441895,1.0228099822998047 C6.604680061340332,0.974120020866394 6.551270008087158,0.9202499985694885 6.444439888000488,0.8125 C6.444439888000488,0.8125 6.444439888000488,0.8125 6.444439888000488,0.8125 C6.337619781494141,0.7047500014305115 6.284210205078125,0.650879979133606 6.229579925537109,0.6021900177001953 C5.83204984664917,0.24778999388217926 5.326930046081543,0.037289999425411224 4.795370101928711,0.0044999998062849045 C4.722330093383789,0 4.646470069885254,0 4.494740009307861,0 C4.263160228729248,0 4.031579971313477,0 3.799999952316284,0 C2.4698801040649414,0 1.8048100471496582,0 1.2967699766159058,0.2588599920272827 C0.8498899936676025,0.48655998706817627 0.48655998706817627,0.8498899936676025 0.2588599920272827,1.2967699766159058 C0,1.8048100471496582 0,2.469870090484619 0,3.799999952316284 C0,5.599999904632568 0,7.400000095367432 0,9.199999809265137 C0,10.530099868774414 0,11.195199966430664 0.2588599920272827,11.703200340270996 C0.48655998706817627,12.150099754333496 0.8498899936676025,12.513400077819824 1.2967699766159058,12.741100311279297 C1.8048100471496582,13 2.4698801040649414,13 3.799999952316284,13 C4.616666793823242,13 5.433333396911621,13 6.25,13"></path>
            </g>
        </g>
        <g style="display:  block;" transform="matrix(1,0,0,1,0,0)" opacity="1">
            <g opacity="1" transform="matrix(1,0,-0.3057306706905365,1,4.790250301361084,9.694989204406738)">
                <path stroke-linecap="round" stroke-linejoin="miter" fill-opacity="0" stroke-miterlimit="4" stroke="white" stroke-opacity="1" stroke-width="1.33" d=" M0.5920000076293945,0 C0.38477998971939087,0 0.2811700105667114,0 0.20202000439167023,0.03518543392419815 C0.1324000060558319,0.06613081693649292 0.07580000162124634,0.11551953852176666 0.04033000022172928,0.17625868320465088 C0,0.2453034520149231 0,0.3356967568397522 0,0.5164834260940552 C0,1.5075702667236328 0,2.4986572265625 0,3.489743947982788 C0,4.650174140930176 0,5.230432510375977 0.2588599920272827,5.673631191253662 C0.48655998706817627,6.063523769378662 0.8498899936676025,6.380568027496338 1.2967699766159058,6.579222202301025 C1.8048100471496582,6.805009365081787 2.4698801040649414,6.805009365081787 3.799999952316284,6.805009365081787 C6.099999904632568,6.805009365081787 8.399999618530273,6.805009365081787 10.699999809265137,6.805009365081787 C12.030099868774414,6.805009365081787 12.695199966430664,6.805009365081787 13.203200340270996,6.579222202301025 C13.650099754333496,6.380568027496338 14.013400077819824,6.063523769378662 14.241100311279297,5.673631191253662 C14.5,5.230432510375977 14.5,4.650174140930176 14.5,3.489743947982788 C14.5,2.4986572265625 14.5,1.5075702667236328 14.5,0.5164834260940552 C14.5,0.3356967568397522 14.5,0.2453034520149231 14.459699630737305,0.17625868320465088 C14.424200057983398,0.11551953852176666 14.367600440979004,0.06613081693649292 14.29800033569336,0.03518543392419815 C14.218799591064453,0 14.11520004272461,0 13.907999992370605,0 C9.46933364868164,0 5.030666828155518,0 0.5920000076293945,0 C0.5920000076293945,0 0.5920000076293945,0 0.5920000076293945,0 C0.5920000076293945,0 0.5920000076293945,0 0.5920000076293945,0z" />
            </g>
        </g>
    </g>
</svg>

